<svg width="134" height="24" viewBox="0 0 134 24" fill="none" xmlns="http://www.w3.org/2000/svg">
<g clip-path="url(#clip0_519_2140)">
<path d="M49.2297 18.0209C49.3937 17.9142 49.6065 17.852 49.8636 17.8342C50.196 17.8164 50.3999 17.8031 50.4797 17.8031V17.612C50.4797 17.4742 50.4398 17.372 50.36 17.2964C50.2802 17.2208 50.1605 17.1853 50.0054 17.1853C49.8724 17.1853 49.766 17.212 49.6818 17.2697C49.5976 17.3275 49.5444 17.3986 49.5178 17.492H49.0613C49.0746 17.3586 49.1233 17.2431 49.2076 17.1409C49.2918 17.0386 49.4026 16.9586 49.54 16.9009C49.6774 16.8431 49.8414 16.8164 50.0231 16.8164C50.1694 16.8164 50.3157 16.8386 50.4531 16.8875C50.5905 16.932 50.7057 17.0164 50.8032 17.1409C50.9007 17.2653 50.9451 17.4342 50.9451 17.6431V19.2253H50.4974V18.9009H50.4797C50.4265 19.0031 50.3423 19.092 50.2226 19.1675C50.1073 19.2431 49.9611 19.2786 49.7838 19.2786C49.6331 19.2786 49.5001 19.252 49.3804 19.1942C49.2608 19.1364 49.1677 19.0564 49.0967 18.9453C49.0303 18.8342 48.9948 18.7053 48.9948 18.5586C48.9859 18.3008 49.0657 18.1231 49.2297 18.0209ZM49.5577 18.8075C49.6375 18.8653 49.7483 18.8964 49.8813 18.9009C50.001 18.9009 50.1073 18.8742 50.2004 18.8253C50.2935 18.7764 50.36 18.7097 50.4087 18.6253C50.4575 18.5409 50.4841 18.452 50.4841 18.3586V18.1409L49.9345 18.1764C49.7793 18.1897 49.6552 18.2253 49.571 18.2875C49.4868 18.3497 49.4425 18.4342 49.4425 18.5497C49.4336 18.6609 49.4779 18.7497 49.5577 18.8075Z" fill="#999999"/>
<path d="M54.5758 17.2135H54.0705V19.2179H53.6095V17.2135H53.2461V16.8401H53.6095V16.5646C53.6095 16.3557 53.676 16.1912 53.8001 16.0757C53.9242 15.9601 54.0971 15.9023 54.3099 15.9023C54.4162 15.9023 54.5182 15.9112 54.6246 15.9335V16.3246C54.5492 16.3112 54.4827 16.3068 54.4295 16.3068C54.3054 16.3068 54.2168 16.3335 54.1592 16.3868C54.1015 16.4401 54.0705 16.5246 54.0705 16.6401V16.8446H54.5758V17.2135Z" fill="#999999"/>
<path d="M55.5135 16.4374C55.4691 16.4108 55.4337 16.3797 55.4071 16.3352C55.3805 16.2952 55.3672 16.2463 55.3672 16.1974C55.3672 16.1485 55.3805 16.1041 55.4071 16.0597C55.4337 16.0152 55.4691 15.9841 55.5135 15.9574C55.5578 15.9308 55.6065 15.9219 55.6597 15.9219C55.7129 15.9219 55.7617 15.9352 55.806 15.9574C55.8503 15.9841 55.8858 16.0152 55.9124 16.0597C55.939 16.1041 55.9523 16.1485 55.9523 16.1974C55.9523 16.2463 55.939 16.2952 55.9124 16.3397C55.8858 16.3797 55.8503 16.4152 55.806 16.4374C55.7617 16.4597 55.7129 16.473 55.6597 16.473C55.6065 16.473 55.5578 16.4641 55.5135 16.4374ZM55.4292 16.8419H55.8902V19.2197H55.4292V16.8419Z" fill="#999999"/>
<path d="M57.3555 19.2175H56.8945V16.8397H57.3378V17.2308H57.3644C57.422 17.0975 57.5062 16.9953 57.6259 16.9197C57.7411 16.8441 57.8874 16.8086 58.0558 16.8086C58.2154 16.8086 58.3572 16.8441 58.4769 16.9108C58.5966 16.9775 58.6896 17.0797 58.7561 17.213C58.8226 17.3464 58.8536 17.5108 58.8536 17.7019V19.213H58.3971V17.7597C58.3971 17.5864 58.3528 17.4486 58.2641 17.3553C58.1755 17.2575 58.0558 17.2086 57.9007 17.2086C57.7943 17.2086 57.7012 17.2308 57.617 17.2797C57.5328 17.3286 57.4707 17.3953 57.4264 17.4841C57.3821 17.573 57.3555 17.6797 57.3555 17.8042V19.2175Z" fill="#999999"/>
<path d="M59.9914 18.0209C60.1554 17.9142 60.3682 17.852 60.6253 17.8342C60.9577 17.8164 61.1616 17.8031 61.2414 17.8031V17.612C61.2414 17.4742 61.2015 17.372 61.1217 17.2964C61.0419 17.2208 60.9222 17.1853 60.7671 17.1853C60.6341 17.1853 60.5278 17.212 60.4435 17.2697C60.3593 17.3275 60.3061 17.3986 60.2795 17.492H59.823C59.8363 17.3586 59.8851 17.2431 59.9693 17.1409C60.0535 17.0386 60.1643 16.9586 60.3017 16.9009C60.4391 16.8431 60.6031 16.8164 60.7848 16.8164C60.9311 16.8164 61.0774 16.8386 61.2148 16.8875C61.3522 16.932 61.4674 17.0164 61.5649 17.1409C61.6624 17.2653 61.7068 17.4342 61.7068 17.6431V19.2253H61.2591V18.9009H61.2414C61.1882 19.0031 61.104 19.092 60.9843 19.1675C60.869 19.2431 60.7228 19.2786 60.5455 19.2786C60.3948 19.2786 60.2618 19.252 60.1421 19.1942C60.0225 19.1364 59.9294 19.0564 59.8585 18.9453C59.792 18.8342 59.7565 18.7053 59.7565 18.5586C59.7477 18.3008 59.8274 18.1231 59.9914 18.0209ZM60.3194 18.8075C60.3992 18.8653 60.51 18.8964 60.643 18.9009C60.7627 18.9009 60.869 18.8742 60.9621 18.8253C61.0552 18.7764 61.1217 18.7097 61.1705 18.6253C61.2192 18.5409 61.2458 18.452 61.2458 18.3586V18.1409L60.6962 18.1764C60.5411 18.1897 60.4169 18.2253 60.3327 18.2875C60.2485 18.3497 60.2042 18.4342 60.2042 18.5497C60.1953 18.6609 60.2352 18.7497 60.3194 18.8075Z" fill="#999999"/>
<path d="M63.1602 19.2175H62.6992V16.8397H63.1425V17.2308H63.1691C63.2267 17.0975 63.3109 16.9953 63.4306 16.9197C63.5458 16.8441 63.6921 16.8086 63.8605 16.8086C64.0201 16.8086 64.1619 16.8441 64.2816 16.9108C64.4013 16.9775 64.4943 17.0797 64.5608 17.213C64.6273 17.3464 64.6583 17.5108 64.6583 17.7019V19.213H64.2018V17.7597C64.2018 17.5864 64.1575 17.4486 64.0688 17.3553C63.9802 17.2575 63.8605 17.2086 63.7054 17.2086C63.599 17.2086 63.5059 17.2308 63.4217 17.2797C63.3375 17.3286 63.2754 17.3953 63.2311 17.4841C63.1868 17.573 63.1602 17.6797 63.1602 17.8042V19.2175Z" fill="#999999"/>
<path d="M66.0688 19.1108C65.9048 19.0086 65.7763 18.8619 65.6877 18.6753C65.599 18.4886 65.5547 18.2753 65.5547 18.0397C65.5547 17.7997 65.599 17.5864 65.6877 17.3997C65.7763 17.213 65.9048 17.0664 66.0688 16.9641C66.2328 16.8619 66.4234 16.8086 66.6406 16.8086C66.8179 16.8086 66.9775 16.8397 67.1193 16.9064C67.2612 16.973 67.3764 17.0664 67.4606 17.1864C67.5493 17.3064 67.598 17.4486 67.6158 17.6086H67.1681C67.1415 17.4886 67.0839 17.3908 66.9952 17.3153C66.9066 17.2397 66.7913 17.1997 66.6539 17.1953C66.5254 17.1953 66.4146 17.2308 66.3215 17.2975C66.224 17.3641 66.1531 17.4619 66.0999 17.5864C66.0467 17.7108 66.0201 17.8575 66.0201 18.0219C66.0201 18.1908 66.0467 18.3419 66.0999 18.4664C66.1531 18.5953 66.224 18.6886 66.3215 18.7597C66.4146 18.8264 66.5254 18.8619 66.6539 18.8619C66.7869 18.8619 66.8977 18.8264 66.9908 18.7553C67.0839 18.6841 67.1415 18.5864 67.1725 18.4575H67.6202C67.6025 18.613 67.5537 18.7508 67.4695 18.8708C67.3853 18.9908 67.2745 19.0886 67.1371 19.1553C66.9952 19.2219 66.8357 19.2575 66.6584 19.2575C66.4279 19.2664 66.2328 19.213 66.0688 19.1108Z" fill="#999999"/>
<path d="M68.576 16.4374C68.5316 16.4108 68.4962 16.3797 68.4696 16.3352C68.443 16.2952 68.4297 16.2463 68.4297 16.1974C68.4297 16.1485 68.443 16.1041 68.4696 16.0597C68.4962 16.0152 68.5316 15.9841 68.576 15.9574C68.6203 15.9308 68.669 15.9219 68.7222 15.9219C68.7754 15.9219 68.8242 15.9352 68.8685 15.9574C68.9128 15.9841 68.9483 16.0152 68.9749 16.0597C69.0015 16.1041 69.0148 16.1485 69.0148 16.1974C69.0148 16.2463 69.0015 16.2952 68.9749 16.3397C68.9483 16.3797 68.9128 16.4152 68.8685 16.4374C68.8242 16.4597 68.7754 16.473 68.7222 16.473C68.669 16.473 68.6203 16.4641 68.576 16.4374ZM68.4917 16.8419H68.9527V19.2197H68.4917V16.8419Z" fill="#999999"/>
<path d="M70.0918 18.0209C70.2558 17.9142 70.4686 17.852 70.7256 17.8342C71.0581 17.8164 71.262 17.8031 71.3417 17.8031V17.612C71.3417 17.4742 71.3019 17.372 71.2221 17.2964C71.1423 17.2208 71.0226 17.1853 70.8675 17.1853C70.7345 17.1853 70.6281 17.212 70.5439 17.2697C70.4597 17.3275 70.4065 17.3986 70.3799 17.492H69.9234C69.9367 17.3586 69.9854 17.2431 70.0696 17.1409C70.1539 17.0386 70.2647 16.9586 70.4021 16.9009C70.5395 16.8431 70.7035 16.8164 70.8852 16.8164C71.0315 16.8164 71.1777 16.8386 71.3151 16.8875C71.4526 16.932 71.5678 17.0164 71.6653 17.1409C71.7628 17.2653 71.8071 17.4342 71.8071 17.6431V19.2253H71.3595V18.9009H71.3417C71.2886 19.0031 71.2043 19.092 71.0847 19.1675C70.9694 19.2431 70.8232 19.2786 70.6459 19.2786C70.4952 19.2786 70.3622 19.252 70.2425 19.1942C70.1228 19.1364 70.0298 19.0564 69.9588 18.9453C69.8924 18.8342 69.8569 18.7053 69.8569 18.5586C69.8436 18.3008 69.9234 18.1231 70.0918 18.0209ZM70.4154 18.8075C70.4952 18.8653 70.606 18.8964 70.7389 18.9009C70.8586 18.9009 70.965 18.8742 71.0581 18.8253C71.1512 18.7764 71.2176 18.7097 71.2664 18.6253C71.3151 18.5409 71.3417 18.452 71.3417 18.3586V18.1409L70.7921 18.1764C70.637 18.1897 70.5129 18.2253 70.4287 18.2875C70.3445 18.3497 70.3001 18.4342 70.3001 18.5497C70.2957 18.6609 70.3356 18.7497 70.4154 18.8075Z" fill="#999999"/>
<path d="M73.2578 19.2197H72.7969V16.0508H73.2578V19.2197Z" fill="#999999"/>
<path d="M75.9121 18.0209C76.0761 17.9142 76.2888 17.852 76.5459 17.8342C76.8783 17.8164 77.0822 17.8031 77.162 17.8031V17.612C77.162 17.4742 77.1221 17.372 77.0423 17.2964C76.9625 17.2208 76.8429 17.1853 76.6877 17.1853C76.5548 17.1853 76.4484 17.212 76.3642 17.2697C76.2799 17.3275 76.2268 17.3986 76.2002 17.492H75.7436C75.7569 17.3586 75.8057 17.2431 75.8899 17.1409C75.9741 17.0386 76.0849 16.9586 76.2223 16.9009C76.3597 16.8431 76.5237 16.8164 76.7055 16.8164C76.8517 16.8164 76.998 16.8386 77.1354 16.8875C77.2728 16.932 77.388 17.0164 77.4856 17.1409C77.5831 17.2653 77.6274 17.4342 77.6274 17.6431V19.2253H77.1797V18.9009H77.162C77.1088 19.0031 77.0246 19.092 76.9049 19.1675C76.7897 19.2431 76.6434 19.2786 76.4661 19.2786C76.3154 19.2786 76.1824 19.252 76.0628 19.1942C75.9431 19.1364 75.85 19.0564 75.7791 18.9453C75.7126 18.8342 75.6771 18.7053 75.6771 18.5586C75.6638 18.3008 75.7481 18.1231 75.9121 18.0209ZM76.2401 18.8075C76.3198 18.8653 76.4307 18.8964 76.5636 18.9009C76.6833 18.9009 76.7897 18.8742 76.8828 18.8253C76.9758 18.7764 77.0423 18.7097 77.0911 18.6253C77.1398 18.5409 77.1664 18.452 77.1664 18.3586V18.1409L76.6168 18.1764C76.4617 18.1897 76.3376 18.2253 76.2534 18.2875C76.1691 18.3497 76.1248 18.4342 76.1248 18.5497C76.116 18.6609 76.1558 18.7497 76.2401 18.8075Z" fill="#999999"/>
<path d="M78.9885 19.1174C78.8422 19.0197 78.7225 18.8774 78.6383 18.6908C78.5541 18.5041 78.5098 18.2863 78.5098 18.0374C78.5098 17.7841 78.5541 17.5663 78.6383 17.3841C78.7225 17.2019 78.8422 17.0597 78.9885 16.9619C79.1347 16.8641 79.3076 16.8152 79.4938 16.8152C79.6267 16.8152 79.7375 16.8374 79.8306 16.8819C79.9193 16.9263 79.9902 16.9752 80.0389 17.033C80.0877 17.0908 80.132 17.1574 80.1719 17.2286H80.1941V16.0508H80.655V19.2197H80.2074V18.8463H80.1719C80.132 18.9174 80.0877 18.9841 80.0345 19.0419C79.9813 19.0997 79.9104 19.153 79.8217 19.1974C79.7287 19.2419 79.6179 19.2641 79.4893 19.2641C79.3032 19.2686 79.1347 19.2152 78.9885 19.1174ZM79.0549 18.4597C79.1037 18.5841 79.1702 18.6863 79.2633 18.7574C79.3564 18.8286 79.4672 18.8686 79.6001 18.8686C79.7287 18.8686 79.8395 18.833 79.9326 18.7619C80.0256 18.6908 80.0966 18.593 80.1453 18.4641C80.1941 18.3352 80.2162 18.1886 80.2162 18.0241C80.2162 17.8597 80.1941 17.713 80.1453 17.593C80.0966 17.4686 80.0301 17.3752 79.937 17.3086C79.8439 17.2419 79.7331 17.2063 79.6046 17.2063C79.4716 17.2063 79.3608 17.2419 79.2677 17.313C79.1746 17.3841 79.1037 17.4819 79.0594 17.6019C79.0151 17.7219 78.9885 17.8686 78.9929 18.0241C78.984 18.193 79.0062 18.3352 79.0549 18.4597Z" fill="#999999"/>
<path d="M82.8631 19.2176H82.3666L81.5156 16.8398H82.0121L82.606 18.6665H82.6282L83.2221 16.8398H83.7185L82.8631 19.2176Z" fill="#999999"/>
<path d="M84.6131 16.4374C84.5687 16.4108 84.5333 16.3797 84.5067 16.3352C84.4801 16.2952 84.4668 16.2463 84.4668 16.1974C84.4668 16.1485 84.4801 16.1041 84.5067 16.0597C84.5333 16.0152 84.5687 15.9841 84.6131 15.9574C84.6574 15.9308 84.7061 15.9219 84.7593 15.9219C84.8125 15.9219 84.8613 15.9352 84.9056 15.9574C84.9499 15.9841 84.9854 16.0152 85.012 16.0597C85.0386 16.1041 85.0519 16.1485 85.0519 16.1974C85.0519 16.2463 85.0386 16.2952 85.012 16.3397C84.9854 16.3797 84.9499 16.4152 84.9056 16.4374C84.8613 16.4597 84.8125 16.473 84.7593 16.473C84.7061 16.473 84.6574 16.4641 84.6131 16.4374ZM84.5289 16.8419H84.9898V19.2197H84.5289V16.8419Z" fill="#999999"/>
<path d="M87.1618 17.2642C87.0865 17.2109 86.9845 17.1842 86.8604 17.1842C86.7762 17.1842 86.6964 17.1976 86.6299 17.2242C86.5634 17.2509 86.5103 17.2909 86.4704 17.3398C86.4305 17.3887 86.4128 17.442 86.4128 17.5042C86.4128 17.5753 86.4438 17.6376 86.5014 17.6864C86.559 17.7398 86.6521 17.7798 86.7806 17.8064L87.153 17.8953C87.3701 17.9442 87.5297 18.0242 87.6361 18.1309C87.7425 18.2376 87.7957 18.3753 87.7957 18.5398C87.7957 18.682 87.7558 18.8109 87.676 18.922C87.6006 19.0331 87.4898 19.122 87.3435 19.1842C87.1973 19.2464 87.0289 19.2776 86.8338 19.2776C86.5546 19.2776 86.333 19.2153 86.169 19.0953C86.005 18.9753 85.9075 18.802 85.8809 18.5798H86.3507C86.3906 18.7931 86.5502 18.8998 86.8205 18.8998C86.9712 18.8998 87.0953 18.8731 87.184 18.8153C87.2726 18.7576 87.3214 18.6776 87.3214 18.5798C87.3214 18.5042 87.2904 18.4376 87.2327 18.3887C87.1751 18.3398 87.082 18.2998 86.9579 18.2687L86.59 18.1887C86.3817 18.1442 86.2177 18.0642 86.1113 17.9531C86.005 17.842 85.9473 17.7042 85.9473 17.5398C85.9473 17.3976 85.9872 17.2776 86.0626 17.1664C86.1379 17.0598 86.2443 16.9753 86.3817 16.9131C86.5191 16.8553 86.6787 16.8242 86.856 16.8242C87.0289 16.8242 87.1796 16.8509 87.3081 16.9087C87.4366 16.962 87.5386 17.042 87.6139 17.1442C87.6893 17.2464 87.7336 17.3664 87.7513 17.5042H87.3081C87.2859 17.3931 87.2372 17.3176 87.1618 17.2642Z" fill="#999999"/>
<path d="M89.0987 19.1147C88.9302 19.0125 88.8061 18.8703 88.713 18.6836C88.6244 18.4969 88.5801 18.2836 88.5801 18.0392C88.5801 17.7947 88.6244 17.5814 88.713 17.3947C88.8017 17.2081 88.9302 17.0658 89.0987 16.9636C89.2671 16.8614 89.4577 16.8125 89.6749 16.8125C89.8921 16.8125 90.0827 16.8658 90.2511 16.9636C90.4195 17.0614 90.5436 17.2081 90.6367 17.3947C90.7298 17.5814 90.7697 17.7947 90.7697 18.0392C90.7697 18.2836 90.7254 18.4969 90.6367 18.6836C90.5481 18.8703 90.4195 19.0125 90.2511 19.1147C90.0827 19.2169 89.8921 19.2658 89.6749 19.2658C89.4577 19.2658 89.2671 19.2125 89.0987 19.1147ZM89.1164 18.4614C89.1651 18.5858 89.2361 18.6881 89.3291 18.7636C89.4222 18.8392 89.5419 18.8747 89.6793 18.8747C89.8167 18.8747 89.9275 18.8392 90.025 18.7636C90.1181 18.6881 90.189 18.5903 90.2378 18.4614C90.2865 18.3369 90.3087 18.1947 90.3087 18.0392C90.3087 17.8836 90.2865 17.7414 90.2378 17.6125C90.189 17.4836 90.1225 17.3814 90.025 17.3058C89.9275 17.2303 89.8167 17.1903 89.6793 17.1903C89.5419 17.1903 89.4222 17.2258 89.3291 17.3058C89.2361 17.3814 89.1607 17.4836 89.1164 17.6125C89.0676 17.7414 89.0455 17.8836 89.0455 18.0392C89.0455 18.1947 89.0676 18.3369 89.1164 18.4614Z" fill="#999999"/>
<path d="M91.6641 16.8397H92.1073V17.2175H92.1339C92.1782 17.093 92.2536 16.9908 92.36 16.9197C92.4663 16.8441 92.5904 16.8086 92.7234 16.8086C92.7899 16.8086 92.8564 16.813 92.9229 16.8175V17.2619C92.8963 17.2575 92.8608 17.2486 92.812 17.2441C92.7633 17.2397 92.719 17.2353 92.6791 17.2353C92.5727 17.2353 92.4796 17.2575 92.3954 17.3064C92.3112 17.3553 92.2447 17.4175 92.1959 17.4975C92.1472 17.5775 92.125 17.6708 92.125 17.773V19.2219H91.6641V16.8397Z" fill="#999999"/>
<path d="M95.6372 19.1108C95.4732 19.0086 95.3447 18.8619 95.256 18.6753C95.1674 18.4886 95.123 18.2753 95.123 18.0397C95.123 17.7997 95.1674 17.5864 95.256 17.3997C95.3447 17.213 95.4732 17.0664 95.6372 16.9641C95.8012 16.8619 95.9918 16.8086 96.209 16.8086C96.3863 16.8086 96.5458 16.8397 96.6877 16.9064C96.8295 16.973 96.9448 17.0664 97.029 17.1864C97.1176 17.3064 97.1664 17.4486 97.1841 17.6086H96.7364C96.7098 17.4886 96.6522 17.3908 96.5636 17.3153C96.4749 17.2397 96.3597 17.1997 96.2223 17.1953C96.0937 17.1953 95.9829 17.2308 95.8898 17.2975C95.7923 17.3641 95.7214 17.4619 95.6682 17.5864C95.615 17.7108 95.5884 17.8575 95.5884 18.0219C95.5884 18.1908 95.615 18.3419 95.6682 18.4664C95.7214 18.5953 95.7923 18.6886 95.8898 18.7597C95.9829 18.8264 96.0937 18.8619 96.2223 18.8619C96.3552 18.8619 96.4661 18.8264 96.5591 18.7553C96.6522 18.6841 96.7098 18.5864 96.7409 18.4575H97.1885C97.1708 18.613 97.1221 18.7508 97.0378 18.8708C96.9536 18.9908 96.8428 19.0886 96.7054 19.1553C96.5636 19.2219 96.404 19.2575 96.2267 19.2575C96.0007 19.2664 95.8056 19.213 95.6372 19.1108Z" fill="#999999"/>
<path d="M98.4776 19.1147C98.3091 19.0125 98.185 18.8703 98.092 18.6836C98.0033 18.4969 97.959 18.2836 97.959 18.0392C97.959 17.7947 98.0033 17.5814 98.092 17.3947C98.1806 17.2081 98.3091 17.0658 98.4776 16.9636C98.646 16.8614 98.8366 16.8125 99.0538 16.8125C99.271 16.8125 99.4616 16.8658 99.63 16.9636C99.7984 17.0614 99.9225 17.2081 100.016 17.3947C100.109 17.5814 100.149 17.7947 100.149 18.0392C100.149 18.2836 100.104 18.4969 100.016 18.6836C99.927 18.8703 99.7984 19.0125 99.63 19.1147C99.4616 19.2169 99.271 19.2658 99.0538 19.2658C98.8366 19.2658 98.6416 19.2125 98.4776 19.1147ZM98.4909 18.4614C98.5396 18.5858 98.6105 18.6881 98.7036 18.7636C98.7967 18.8392 98.9164 18.8747 99.0538 18.8747C99.1912 18.8747 99.302 18.8392 99.3995 18.7636C99.4926 18.6881 99.5635 18.5903 99.6123 18.4614C99.661 18.3369 99.6832 18.1947 99.6832 18.0392C99.6832 17.8836 99.661 17.7414 99.6123 17.6125C99.5635 17.4836 99.497 17.3814 99.3995 17.3058C99.302 17.2303 99.1912 17.1903 99.0538 17.1903C98.9164 17.1903 98.7967 17.2258 98.7036 17.3058C98.6105 17.3814 98.5352 17.4836 98.4909 17.6125C98.4421 17.7414 98.42 17.8836 98.42 18.0392C98.42 18.1947 98.4421 18.3369 98.4909 18.4614Z" fill="#999999"/>
<path d="M101.039 16.8397H101.482V17.2308H101.509C101.558 17.0975 101.642 16.9953 101.753 16.9197C101.863 16.8441 101.996 16.8086 102.152 16.8086C102.307 16.8086 102.435 16.8441 102.546 16.9197C102.652 16.9908 102.732 17.0975 102.785 17.2308H102.812C102.87 17.1019 102.958 16.9997 103.082 16.9242C103.207 16.8486 103.348 16.813 103.517 16.813C103.659 16.813 103.787 16.8441 103.898 16.9019C104.009 16.9641 104.093 17.053 104.155 17.1775C104.217 17.3019 104.248 17.4486 104.248 17.6264V19.2219H103.787V17.6708C103.787 17.5197 103.747 17.4042 103.663 17.3286C103.579 17.253 103.477 17.2175 103.344 17.2175C103.246 17.2175 103.162 17.2397 103.091 17.2797C103.02 17.3197 102.967 17.3775 102.932 17.453C102.896 17.5286 102.879 17.613 102.879 17.7064V19.2219H102.422V17.6441C102.422 17.5597 102.404 17.4841 102.369 17.4175C102.333 17.3508 102.28 17.3019 102.218 17.2664C102.152 17.2308 102.081 17.213 101.996 17.213C101.912 17.213 101.828 17.2353 101.757 17.2841C101.682 17.3286 101.624 17.3953 101.58 17.4753C101.535 17.5553 101.513 17.6486 101.513 17.7553V19.2219H101.052V16.8397H101.039Z" fill="#999999"/>
<path d="M105.233 16.8397H105.681V17.2264H105.721C105.76 17.1553 105.805 17.0886 105.853 17.0308C105.902 16.973 105.969 16.9197 106.062 16.8753C106.15 16.8308 106.261 16.8086 106.394 16.8086C106.585 16.8086 106.753 16.8575 106.904 16.9553C107.055 17.053 107.17 17.1953 107.254 17.3775C107.338 17.5641 107.383 17.7819 107.383 18.0308C107.383 18.2797 107.343 18.4975 107.259 18.6841C107.174 18.8708 107.059 19.013 106.908 19.1108C106.762 19.2086 106.589 19.2575 106.399 19.2619C106.213 19.2619 106.071 19.2175 105.964 19.1375C105.862 19.0575 105.778 18.9553 105.716 18.8442H105.689V20.1108H105.229V16.8397H105.233ZM105.76 18.4708C105.809 18.5953 105.876 18.693 105.969 18.7642C106.062 18.8353 106.168 18.8708 106.297 18.8708C106.43 18.8708 106.541 18.8353 106.634 18.7597C106.727 18.6886 106.798 18.5864 106.846 18.4619C106.895 18.3375 106.917 18.1908 106.917 18.0308C106.917 17.8708 106.895 17.7286 106.846 17.6086C106.798 17.4841 106.731 17.3864 106.638 17.3197C106.545 17.253 106.434 17.213 106.297 17.213C106.168 17.213 106.057 17.2441 105.964 17.3108C105.871 17.3775 105.805 17.4708 105.756 17.5953C105.707 17.7197 105.685 17.8619 105.685 18.0308C105.689 18.1953 105.712 18.3419 105.76 18.4708Z" fill="#999999"/>
<path d="M108.415 18.0209C108.579 17.9142 108.792 17.852 109.049 17.8342C109.382 17.8164 109.585 17.8031 109.665 17.8031V17.612C109.665 17.4742 109.625 17.372 109.546 17.2964C109.466 17.2208 109.346 17.1853 109.191 17.1853C109.058 17.1853 108.952 17.212 108.867 17.2697C108.783 17.3275 108.73 17.3986 108.703 17.492H108.247C108.26 17.3586 108.309 17.2431 108.393 17.1409C108.477 17.0386 108.588 16.9586 108.726 16.9009C108.863 16.8431 109.027 16.8164 109.209 16.8164C109.355 16.8164 109.501 16.8386 109.639 16.8875C109.776 16.932 109.891 17.0164 109.989 17.1409C110.086 17.2653 110.131 17.4342 110.131 17.6431V19.2253H109.683V18.9009H109.665C109.612 19.0031 109.528 19.092 109.408 19.1675C109.293 19.2431 109.147 19.2786 108.969 19.2786C108.819 19.2786 108.686 19.252 108.566 19.1942C108.446 19.1364 108.353 19.0564 108.282 18.9453C108.216 18.8342 108.18 18.7053 108.18 18.5586C108.171 18.3008 108.251 18.1231 108.415 18.0209ZM108.743 18.8075C108.823 18.8653 108.934 18.8964 109.067 18.9009C109.187 18.9009 109.293 18.8742 109.386 18.8253C109.479 18.7764 109.546 18.7097 109.594 18.6253C109.643 18.5409 109.67 18.452 109.67 18.3586V18.1409L109.12 18.1764C108.965 18.1897 108.841 18.2253 108.757 18.2875C108.672 18.3497 108.628 18.4342 108.628 18.5497C108.619 18.6609 108.659 18.7497 108.743 18.8075Z" fill="#999999"/>
<path d="M111.586 19.2175H111.125V16.8397H111.568V17.2308H111.595C111.652 17.0975 111.737 16.9953 111.856 16.9197C111.972 16.8441 112.118 16.8086 112.286 16.8086C112.446 16.8086 112.588 16.8441 112.707 16.9108C112.827 16.9775 112.92 17.0797 112.987 17.213C113.053 17.3464 113.084 17.5108 113.084 17.7019V19.213H112.628V17.7597C112.628 17.5864 112.583 17.4486 112.495 17.3553C112.406 17.2575 112.286 17.2086 112.131 17.2086C112.025 17.2086 111.932 17.2308 111.847 17.2797C111.763 17.3286 111.701 17.3953 111.657 17.4841C111.613 17.573 111.586 17.6797 111.586 17.8042V19.2175Z" fill="#999999"/>
<path d="M114.12 20.0976V19.7065C114.142 19.7065 114.213 19.711 114.328 19.7154C114.39 19.7154 114.439 19.7065 114.475 19.6976C114.515 19.6887 114.55 19.6576 114.59 19.6132C114.63 19.5687 114.665 19.4976 114.701 19.4043L114.758 19.2487L113.898 16.8398H114.39L114.984 18.6843H115.011L115.605 16.8398H116.101L115.135 19.5332C115.064 19.7243 114.971 19.8665 114.847 19.9643C114.723 20.0621 114.568 20.111 114.377 20.111C114.244 20.1065 114.16 20.1021 114.12 20.0976Z" fill="#999999"/>
<path d="M32.9895 4.2442C33.3042 4.2442 33.6101 4.23531 33.907 4.22198C34.204 4.2042 34.4966 4.19976 34.7847 4.19976V4.55976H34.6251C34.4611 4.55976 34.3193 4.58198 34.1863 4.62642C34.0533 4.67087 33.9913 4.74198 33.9913 4.83531C33.9913 4.89753 34.0179 4.96865 34.071 5.03976C34.1242 5.11087 34.1686 5.17753 34.2084 5.23087L36.039 7.78642L37.5416 5.62642C37.6568 5.44865 37.7455 5.30198 37.8164 5.18642C37.8829 5.07087 37.9184 4.95531 37.9184 4.8442C37.9184 4.78198 37.8918 4.72865 37.8341 4.69309C37.7765 4.65753 37.71 4.63087 37.6347 4.60865C37.5593 4.59087 37.4795 4.57309 37.4042 4.5642C37.3288 4.55531 37.2668 4.55087 37.2269 4.55087H37.0097V4.19531C37.2446 4.19531 37.4751 4.2042 37.7012 4.21753C37.9272 4.23531 38.1577 4.23976 38.3926 4.23976C38.5876 4.23976 38.7827 4.23087 38.9733 4.21753C39.1683 4.19976 39.3589 4.19531 39.545 4.19531V4.55531C39.3367 4.55531 39.1506 4.61309 38.9866 4.72865C38.8226 4.8442 38.694 4.97309 38.5965 5.10642L36.3404 8.27976V11.1642C36.3404 11.422 36.3626 11.622 36.4069 11.7686C36.4512 11.9153 36.5177 12.022 36.6019 12.0931C36.6862 12.1642 36.7925 12.2086 36.9166 12.2264C37.0407 12.2442 37.187 12.2486 37.3466 12.2486H37.5771V12.6086C37.2136 12.6086 36.859 12.5998 36.5133 12.5864C36.1676 12.5686 35.8662 12.5642 35.5958 12.5642C35.2899 12.5642 34.9619 12.5731 34.6118 12.5864C34.2661 12.6042 33.907 12.6086 33.5436 12.6086V12.2486H33.7741C34.1375 12.2486 34.3946 12.1864 34.5497 12.0575C34.7049 11.9286 34.7802 11.662 34.7802 11.262V8.67976L32.3557 5.37309C32.2671 5.2442 32.1828 5.12865 32.1075 5.03087C32.0321 4.92865 31.9479 4.8442 31.8593 4.77309C31.7706 4.70198 31.6731 4.6442 31.5667 4.60865C31.4604 4.57309 31.3363 4.55531 31.19 4.55531H31.0703V4.19531C31.4116 4.19531 31.7263 4.2042 32.0233 4.21753C32.3335 4.23531 32.6482 4.2442 32.9895 4.2442Z" fill="#999999"/>
<path d="M45.8824 4.01172C46.5296 4.01172 47.1368 4.1095 47.7041 4.30061C48.2715 4.49172 48.7635 4.76727 49.1801 5.12727C49.5968 5.48727 49.9248 5.92283 50.1686 6.43838C50.4123 6.95394 50.532 7.53172 50.532 8.17616C50.532 8.8695 50.4168 9.49616 50.1819 10.0651C49.9469 10.6339 49.6234 11.1184 49.2112 11.5273C48.7989 11.9317 48.3114 12.2473 47.7573 12.4695C47.1989 12.6917 46.5961 12.8028 45.9489 12.8028C45.3107 12.8028 44.7123 12.6962 44.1582 12.4873C43.6042 12.2784 43.1211 11.9851 42.7133 11.6073C42.3055 11.2295 41.9864 10.7762 41.7559 10.2428C41.5254 9.7095 41.4102 9.12283 41.4102 8.4695C41.4102 7.84283 41.5254 7.25616 41.7559 6.71394C41.9864 6.17172 42.3011 5.70061 42.7 5.30061C43.0989 4.90061 43.5732 4.5895 44.1183 4.35839C44.6635 4.12727 45.253 4.01172 45.8824 4.01172ZM43.1078 8.04283C43.1078 8.58061 43.1698 9.10505 43.2939 9.61172C43.418 10.1184 43.6042 10.5673 43.8524 10.9628C44.1006 11.3584 44.4064 11.6739 44.7743 11.9095C45.1422 12.1451 45.5722 12.2651 46.0686 12.2651C46.6581 12.2651 47.1324 12.1495 47.4958 11.9139C47.8549 11.6828 48.1341 11.3806 48.3335 11.0162C48.533 10.6517 48.666 10.2384 48.7325 9.78505C48.7989 9.33172 48.8344 8.88283 48.8344 8.43838C48.8344 7.99394 48.7724 7.54505 48.6527 7.08727C48.533 6.6295 48.3468 6.21172 48.0986 5.83394C47.8504 5.45616 47.5446 5.14505 47.1723 4.90505C46.7999 4.66505 46.3656 4.54505 45.8603 4.54505C45.3284 4.54505 44.8851 4.65172 44.5306 4.86505C44.1804 5.07838 43.8967 5.35394 43.6884 5.69172C43.4801 6.0295 43.3294 6.40727 43.2407 6.82061C43.1521 7.2295 43.1078 7.63839 43.1078 8.04283Z" fill="#999999"/>
<path d="M52.4609 4.19531C52.718 4.19531 53.0106 4.2042 53.3297 4.21753C53.6488 4.23531 54.0034 4.23976 54.3935 4.23976C54.7569 4.23976 55.0893 4.23087 55.3952 4.21753C55.6966 4.19976 55.9714 4.19531 56.2152 4.19531V4.55531H56.0689C55.9492 4.55531 55.8296 4.55976 55.7099 4.57309C55.5946 4.58642 55.4883 4.61753 55.3996 4.67087C55.311 4.7242 55.2356 4.80865 55.1824 4.92865C55.1248 5.04865 55.0982 5.21753 55.0982 5.43531V9.59531C55.0982 9.98198 55.1381 10.3331 55.2135 10.6531C55.2888 10.9731 55.4218 11.2442 55.6035 11.4753C55.7852 11.7064 56.0201 11.8798 56.3127 12.0042C56.6052 12.1286 56.9687 12.1909 57.403 12.1909C58.2053 12.1909 58.786 11.9553 59.1583 11.4798C59.5262 11.0042 59.7123 10.3642 59.7123 9.55087V5.43531C59.7123 5.21753 59.6857 5.04865 59.6325 4.92865C59.5794 4.80865 59.5129 4.71976 59.4242 4.67087C59.34 4.61753 59.2469 4.58642 59.145 4.57309C59.043 4.55976 58.9411 4.55531 58.8347 4.55531H58.5909V4.19531C58.8347 4.19531 59.0785 4.2042 59.3267 4.21753C59.5749 4.23531 59.8187 4.23976 60.0625 4.23976C60.2974 4.23976 60.5323 4.23087 60.7672 4.21753C61.0022 4.19976 61.2371 4.19531 61.472 4.19531V4.55531H61.2193C61.1396 4.55531 61.0509 4.55976 60.9578 4.57309C60.8647 4.58642 60.7805 4.61753 60.7052 4.67087C60.6298 4.7242 60.5678 4.80865 60.519 4.92865C60.4703 5.04865 60.4481 5.21753 60.4481 5.43531V9.2842C60.4481 9.96865 60.3639 10.5331 60.1955 10.9864C60.027 11.4353 59.7921 11.7953 59.4996 12.0664C59.2026 12.3375 58.8569 12.5242 58.4624 12.6353C58.0679 12.742 57.6424 12.7998 57.1903 12.7998C56.6097 12.7998 56.0911 12.7464 55.6434 12.6353C55.1957 12.5242 54.8145 12.3509 54.5043 12.1109C54.194 11.8709 53.9591 11.5598 53.7995 11.1775C53.64 10.7953 53.5646 10.3375 53.5646 9.79531V5.43976C53.5646 5.22198 53.538 5.05309 53.4848 4.93309C53.4316 4.81309 53.3651 4.7242 53.2809 4.67531C53.1967 4.62198 53.0948 4.59087 52.984 4.57753C52.8687 4.5642 52.7535 4.55976 52.6338 4.55976H52.4875V4.19531H52.4609Z" fill="#999999"/>
<path d="M63.1255 4.55141V4.19141C63.3117 4.19141 63.5865 4.20029 63.9455 4.21363C64.3045 4.23141 64.6813 4.23585 65.0669 4.23585C65.457 4.23585 65.8116 4.22696 66.1395 4.21363C66.4675 4.19585 66.7601 4.19141 67.0172 4.19141C67.7618 4.19141 68.4311 4.29363 69.025 4.49363C69.619 4.69363 70.1243 4.97807 70.5409 5.34252C70.9576 5.70696 71.2767 6.14696 71.4983 6.66252C71.7199 7.17807 71.8307 7.74696 71.8307 8.37363C71.8307 8.95141 71.7199 9.49807 71.5027 10.0136C71.2856 10.5292 70.9842 10.9781 70.5985 11.3647C70.2129 11.7514 69.7697 12.0581 69.2599 12.2803C68.7502 12.507 68.205 12.6181 67.6244 12.6181C67.5756 12.6181 67.5269 12.6181 67.4781 12.6181C67.4294 12.6181 67.3806 12.6136 67.3319 12.6047C67.0659 12.5736 66.7335 12.5559 66.339 12.5559C65.9445 12.5559 65.5367 12.5559 65.1245 12.5559C64.9162 12.5559 64.7079 12.5559 64.504 12.5603C64.3001 12.5647 64.1095 12.5692 63.9322 12.5781C63.7549 12.587 63.5954 12.5914 63.4535 12.5959C63.3117 12.6003 63.2009 12.6003 63.1211 12.6003V12.2403H63.2895C63.4048 12.2403 63.5111 12.2359 63.6175 12.2225C63.7239 12.2092 63.817 12.1825 63.9012 12.1336C63.9854 12.0847 64.0563 12.0136 64.1051 11.9247C64.1538 11.8359 64.1849 11.7114 64.1849 11.5559V5.2403C64.1849 5.08029 64.1583 4.95585 64.1051 4.86696C64.0519 4.77807 63.9854 4.71141 63.9012 4.66252C63.817 4.61363 63.7195 4.58252 63.6175 4.57363C63.5111 4.56029 63.4048 4.55585 63.2895 4.55585H63.1255V4.55141ZM65.7451 11.2225C65.7451 11.4314 65.7672 11.6003 65.816 11.7247C65.8647 11.8492 65.9401 11.947 66.0465 12.0136C66.1528 12.0803 66.2814 12.1247 66.4409 12.147C66.6005 12.1647 66.7867 12.1781 67.0039 12.1781C67.5225 12.1781 67.9746 12.0803 68.3646 11.8803C68.7547 11.6847 69.0782 11.4181 69.3397 11.0892C69.6012 10.7603 69.8007 10.3781 69.9337 9.94696C70.0666 9.51585 70.1331 9.06696 70.1331 8.6003C70.1331 7.80474 70.0401 7.14696 69.8495 6.63585C69.6589 6.1203 69.4018 5.71585 69.0782 5.41807C68.7547 5.12029 68.3779 4.91141 67.9435 4.79585C67.5092 4.68029 67.0526 4.62252 66.5651 4.62252C66.4277 4.62252 66.2903 4.62696 66.1528 4.64029C66.0154 4.65363 65.878 4.66696 65.7406 4.68029V11.2225H65.7451Z" fill="#999999"/>
<path d="M78.5113 4.01172C79.1585 4.01172 79.7657 4.1095 80.3331 4.30061C80.9004 4.49172 81.3924 4.76727 81.809 5.12727C82.2257 5.48727 82.5537 5.92283 82.7975 6.43838C83.0412 6.95394 83.1609 7.53172 83.1609 8.17616C83.1609 8.8695 83.0457 9.49616 82.8108 10.0651C82.5758 10.6339 82.2523 11.1184 81.8401 11.5273C81.4279 11.9317 80.9403 12.2473 80.3862 12.4695C79.8278 12.6917 79.225 12.8028 78.5778 12.8028C77.9396 12.8028 77.3412 12.6962 76.7871 12.4873C76.2331 12.2784 75.75 11.9851 75.3422 11.6073C74.9344 11.2295 74.6153 10.7762 74.3848 10.2428C74.1543 9.7095 74.0391 9.12283 74.0391 8.4695C74.0391 7.84283 74.1543 7.25616 74.3848 6.71394C74.6153 6.17172 74.93 5.70061 75.3289 5.30061C75.7278 4.90061 76.2021 4.5895 76.7473 4.35839C77.2924 4.12727 77.8775 4.01172 78.5113 4.01172ZM75.7322 8.04283C75.7322 8.58061 75.7943 9.10505 75.9184 9.61172C76.0425 10.1184 76.2287 10.5673 76.4769 10.9628C76.7251 11.3584 77.0309 11.6739 77.3988 11.9095C77.7667 12.1451 78.1966 12.2651 78.6931 12.2651C79.2826 12.2651 79.7568 12.1495 80.1203 11.9139C80.4793 11.6828 80.7586 11.3806 80.958 11.0162C81.1575 10.6517 81.2905 10.2384 81.3569 9.78505C81.4234 9.33172 81.4589 8.88283 81.4589 8.43838C81.4589 7.99394 81.3968 7.54505 81.2772 7.08727C81.1575 6.6295 80.9713 6.21172 80.7231 5.83394C80.4749 5.45616 80.1691 5.14505 79.7967 4.90505C79.4244 4.66505 78.99 4.54505 78.4848 4.54505C77.9529 4.54505 77.5096 4.65172 77.155 4.86505C76.8049 5.07838 76.5212 5.35394 76.3129 5.69172C76.1046 6.0295 75.9539 6.40727 75.8652 6.82061C75.7766 7.2295 75.7322 7.63839 75.7322 8.04283Z" fill="#999999"/>
<path d="M86.4319 4.24029C86.618 4.24029 86.7998 4.23141 86.9726 4.21807C87.1455 4.20029 87.3272 4.19585 87.5134 4.19585L92.912 10.2403L92.9342 10.2181V5.68474C92.9342 5.43585 92.8943 5.23585 92.819 5.08918C92.7436 4.94252 92.6505 4.82696 92.5397 4.74696C92.4289 4.66696 92.3137 4.61363 92.194 4.59141C92.0743 4.56918 91.9679 4.55585 91.8793 4.55585H91.6134V4.19141C91.897 4.19141 92.1807 4.20029 92.4644 4.21363C92.748 4.23141 93.0317 4.23585 93.3154 4.23585C93.5636 4.23585 93.8163 4.22696 94.06 4.21363C94.3082 4.19585 94.5565 4.19141 94.8047 4.19141V4.55141H94.6229C94.4944 4.55141 94.3659 4.56474 94.2329 4.58696C94.1044 4.60918 93.9891 4.67585 93.8872 4.77807C93.7852 4.88474 93.701 5.03585 93.6389 5.23585C93.5725 5.43585 93.5414 5.7203 93.5414 6.0803V11.5692C93.5414 11.7781 93.5459 11.987 93.5547 12.1959C93.5636 12.4047 93.5813 12.6003 93.6168 12.787H93.1558L86.9062 5.86252V10.8314C86.9062 11.0981 86.9239 11.3159 86.9549 11.4936C86.9859 11.6714 87.048 11.8136 87.1322 11.9292C87.2164 12.0403 87.3361 12.1203 87.4824 12.1692C87.6331 12.2181 87.8192 12.2403 88.0453 12.2403H88.2536V12.6003C87.9965 12.6003 87.735 12.5914 87.4691 12.5781C87.2076 12.5603 86.946 12.5559 86.6845 12.5559C86.4097 12.5559 86.1349 12.5647 85.8601 12.5781C85.5853 12.5958 85.3105 12.6003 85.0357 12.6003V12.2403H85.2041C85.6252 12.2403 85.9133 12.107 86.064 11.8358C86.2147 11.5647 86.2945 11.1914 86.2945 10.707V5.63585C86.2945 5.46696 86.2635 5.31585 86.197 5.18252C86.1305 5.04918 86.0507 4.93363 85.9488 4.8403C85.8468 4.74252 85.7316 4.67141 85.5986 4.62252C85.4656 4.57363 85.3282 4.55141 85.1908 4.55141H85.0312V4.19141C85.2662 4.19141 85.4967 4.20029 85.7271 4.21363C85.9665 4.23141 86.197 4.24029 86.4319 4.24029Z" fill="#999999"/>
<path d="M96.6699 8.2695C96.6699 7.57172 96.8073 6.95394 97.0821 6.42505C97.3569 5.89616 97.7204 5.45172 98.1725 5.09172C98.6246 4.73172 99.1432 4.46505 99.7238 4.28283C100.304 4.10061 100.903 4.01172 101.519 4.01172C101.909 4.01172 102.237 4.03394 102.507 4.07839C102.778 4.12283 103.03 4.17172 103.265 4.2295C103.5 4.28727 103.726 4.33616 103.943 4.38061C104.161 4.42505 104.391 4.45172 104.635 4.46061C104.635 4.56727 104.635 4.70061 104.635 4.86505C104.635 5.0295 104.639 5.20727 104.648 5.39394C104.657 5.58505 104.67 5.77616 104.693 5.97172C104.715 6.16727 104.741 6.3495 104.786 6.51838L104.422 6.54061C104.236 5.79839 103.899 5.28283 103.407 4.98505C102.92 4.68727 102.317 4.54061 101.608 4.54061C101.067 4.54061 100.593 4.63394 100.189 4.81616C99.7859 5.00283 99.449 5.25616 99.1742 5.58061C98.9038 5.90505 98.7 6.28727 98.567 6.72727C98.434 7.16727 98.3675 7.63838 98.3675 8.14505C98.3675 8.67394 98.434 9.1895 98.5625 9.68283C98.6911 10.1762 98.8905 10.6162 99.1609 10.9984C99.4313 11.3806 99.7815 11.6873 100.211 11.9139C100.641 12.1451 101.151 12.2562 101.741 12.2562C102.024 12.2562 102.286 12.2339 102.525 12.1895C102.764 12.1451 102.92 12.0917 102.991 12.0251V10.0606C102.991 9.94061 102.964 9.83838 102.911 9.75838C102.858 9.67838 102.787 9.61172 102.698 9.56727C102.609 9.51838 102.512 9.48727 102.401 9.4695C102.29 9.45172 102.179 9.44727 102.069 9.44727H101.909V9.08727C102.215 9.10505 102.521 9.11394 102.818 9.12283C103.115 9.13172 103.42 9.13616 103.726 9.13616C104.001 9.13616 104.271 9.13172 104.537 9.12283C104.803 9.11394 105.074 9.10505 105.349 9.08727V9.44727H105.189C104.75 9.44727 104.533 9.65172 104.533 10.0606V11.8962L104.812 12.0517V12.2695C104.271 12.4206 103.726 12.5451 103.186 12.6428C102.645 12.7406 102.055 12.7895 101.426 12.7895C100.748 12.7895 100.114 12.6917 99.5332 12.4917C98.9526 12.2917 98.4473 12.0028 98.0218 11.6162C97.5963 11.2295 97.2639 10.7539 97.0201 10.1939C96.7763 9.63394 96.6699 8.99394 96.6699 8.2695Z" fill="#999999"/>
<path d="M107.316 10.4156L107.658 10.3445C107.689 10.6023 107.751 10.8467 107.844 11.0823C107.937 11.3178 108.061 11.5178 108.212 11.6912C108.367 11.8645 108.553 12.0023 108.77 12.109C108.987 12.2156 109.244 12.2645 109.533 12.2645C109.741 12.2645 109.936 12.2334 110.113 12.1667C110.291 12.1001 110.45 12.0112 110.588 11.8956C110.725 11.7801 110.831 11.6378 110.911 11.469C110.986 11.3001 111.026 11.109 111.026 10.8912C111.026 10.5356 110.938 10.2512 110.76 10.029C110.583 9.80674 110.361 9.61562 110.1 9.45563C109.838 9.29563 109.55 9.14007 109.244 8.98896C108.939 8.84229 108.651 8.66451 108.389 8.46007C108.128 8.25563 107.906 7.99785 107.729 7.69562C107.551 7.38896 107.463 6.99785 107.463 6.5134C107.463 6.11785 107.529 5.76674 107.662 5.45563C107.795 5.14451 107.981 4.88674 108.216 4.6734C108.451 4.46007 108.735 4.29563 109.067 4.18451C109.4 4.0734 109.759 4.01562 110.149 4.01562C110.228 4.01562 110.348 4.02451 110.508 4.03785C110.667 4.05563 110.831 4.0734 111.004 4.09118C111.177 4.10896 111.345 4.13118 111.509 4.1534C111.669 4.17118 111.802 4.18896 111.9 4.1934C111.9 4.4734 111.908 4.76229 111.931 5.05118C111.953 5.34007 111.979 5.62896 112.024 5.92229L111.682 5.98451C111.656 5.7934 111.611 5.60229 111.536 5.41563C111.465 5.22896 111.368 5.06451 111.244 4.92229C111.124 4.77562 110.978 4.66451 110.814 4.58007C110.65 4.49563 110.459 4.45118 110.251 4.45118C109.768 4.45118 109.395 4.58451 109.143 4.85118C108.89 5.11785 108.761 5.49118 108.761 5.97118C108.761 6.30007 108.85 6.57118 109.027 6.78007C109.205 6.98896 109.431 7.17118 109.701 7.33118C109.971 7.48674 110.264 7.63785 110.579 7.78451C110.893 7.93118 111.186 8.10451 111.456 8.3134C111.727 8.52229 111.953 8.78007 112.13 9.08674C112.307 9.3934 112.396 9.78451 112.396 10.269C112.396 10.6867 112.316 11.0512 112.152 11.3667C111.988 11.6823 111.775 11.9445 111.509 12.1578C111.244 12.3712 110.933 12.5312 110.574 12.6423C110.22 12.749 109.847 12.8067 109.457 12.8067C109.116 12.8067 108.784 12.7534 108.464 12.6512C108.141 12.5445 107.831 12.4156 107.529 12.2645C107.498 11.9578 107.463 11.6512 107.427 11.349C107.392 11.0467 107.347 10.7223 107.316 10.4156Z" fill="#999999"/>
<path d="M114.238 12.6106V12.2506H114.309C114.544 12.2506 114.757 12.184 114.947 12.0506C115.138 11.9173 115.275 11.7217 115.364 11.464L117.306 5.92618C117.385 5.69951 117.47 5.45062 117.558 5.17951C117.647 4.9084 117.713 4.65507 117.753 4.43285C117.948 4.37063 118.152 4.28618 118.365 4.17951C118.578 4.07285 118.742 3.9884 118.857 3.91285L118.954 3.89062C119.003 3.89062 119.03 3.90396 119.039 3.92618C119.061 3.97507 119.083 4.02396 119.101 4.07729C119.118 4.13063 119.132 4.17951 119.149 4.2284L121.383 10.5395C121.454 10.7484 121.53 10.9617 121.6 11.1706C121.671 11.384 121.751 11.584 121.831 11.7662C121.96 12.0862 122.225 12.2506 122.633 12.2506H122.704V12.6106C122.429 12.5928 122.155 12.584 121.88 12.5751C121.605 12.5662 121.321 12.5617 121.029 12.5617C120.727 12.5617 120.43 12.5662 120.124 12.5751C119.823 12.584 119.517 12.5928 119.207 12.6106V12.2506H119.34C119.411 12.2506 119.491 12.2462 119.575 12.2373C119.659 12.2284 119.739 12.2151 119.819 12.1884C119.894 12.1662 119.96 12.1262 120.014 12.0817C120.067 12.0373 120.093 11.9751 120.093 11.8995C120.093 11.8195 120.071 11.704 120.023 11.5484C119.974 11.3973 119.916 11.224 119.854 11.0284L119.38 9.6284H116.627L116.237 10.8817C116.171 11.0906 116.113 11.2728 116.056 11.424C115.998 11.5751 115.971 11.7084 115.971 11.824C115.971 11.9128 115.998 11.984 116.056 12.0417C116.113 12.0995 116.184 12.1395 116.273 12.1662C116.361 12.1928 116.459 12.2151 116.57 12.2284C116.681 12.2417 116.782 12.2462 116.88 12.2462H117.013V12.6062C116.769 12.5884 116.525 12.5795 116.277 12.5706C116.029 12.5617 115.785 12.5573 115.541 12.5573C115.324 12.5573 115.107 12.5617 114.885 12.5706C114.673 12.584 114.455 12.5973 114.238 12.6106ZM119.127 8.95729L118.01 5.54396H117.988L116.858 8.95729H119.127Z" fill="#999999"/>
<path d="M125.627 4.24029C125.813 4.24029 125.995 4.23141 126.168 4.21807C126.341 4.20029 126.523 4.19585 126.709 4.19585L132.107 10.2403L132.13 10.2181V5.68474C132.13 5.43585 132.09 5.23585 132.014 5.08918C131.939 4.94252 131.846 4.82696 131.735 4.74696C131.624 4.66696 131.509 4.61363 131.389 4.59141C131.27 4.56918 131.163 4.55585 131.075 4.55585H130.809V4.19141C131.092 4.19141 131.376 4.20029 131.66 4.21363C131.943 4.23141 132.227 4.23585 132.511 4.23585C132.759 4.23585 133.012 4.22696 133.255 4.21363C133.504 4.19585 133.752 4.19141 134 4.19141V4.55141H133.818C133.69 4.55141 133.561 4.56474 133.428 4.58696C133.3 4.60918 133.184 4.67585 133.082 4.77807C132.981 4.88474 132.896 5.03585 132.834 5.23585C132.768 5.43585 132.737 5.7203 132.737 6.0803V11.5692C132.737 11.7781 132.741 11.987 132.75 12.1959C132.759 12.4047 132.777 12.6003 132.812 12.787H132.351L126.101 5.86696V10.8358C126.101 11.1025 126.119 11.3203 126.15 11.4981C126.181 11.6759 126.243 11.8181 126.328 11.9336C126.412 12.0447 126.531 12.1247 126.678 12.1736C126.828 12.2225 127.015 12.2447 127.241 12.2447H127.449V12.6047C127.192 12.6047 126.93 12.5958 126.664 12.5825C126.403 12.5647 126.141 12.5603 125.88 12.5603C125.605 12.5603 125.33 12.5692 125.055 12.5825C124.781 12.6003 124.506 12.6047 124.231 12.6047V12.2447H124.399C124.821 12.2447 125.109 12.1114 125.259 11.8403C125.41 11.5692 125.49 11.1959 125.49 10.7114V5.63585C125.49 5.46696 125.459 5.31585 125.392 5.18252C125.326 5.04918 125.246 4.93363 125.144 4.8403C125.042 4.74252 124.927 4.67141 124.794 4.62252C124.661 4.57363 124.524 4.55141 124.386 4.55141H124.227V4.19141C124.461 4.19141 124.692 4.20029 124.922 4.21363C125.162 4.23141 125.392 4.24029 125.627 4.24029Z" fill="#999999"/>
<path d="M22.8047 11.3255C21.9537 12.1299 20.9032 12.5699 19.7951 12.8944C17.4681 13.5788 15.0569 13.7344 12.6058 13.6988C12.7254 13.6677 12.8407 13.6321 12.9604 13.601C15.3538 12.9477 17.7119 12.1832 19.8926 11.001C21.116 10.3388 22.2817 9.58769 23.0839 8.40991C23.1283 8.34325 23.1681 8.27658 23.208 8.20547C23.0795 7.85436 22.9332 7.50769 22.7737 7.16547C22.7205 7.26769 22.6673 7.36547 22.6008 7.4588C21.9448 8.42769 21.0495 9.12102 20.0699 9.71214C18.1773 10.8544 16.1206 11.6588 13.9887 12.2455C11.7326 12.8677 9.43661 13.3655 7.15393 13.9121C7.04312 13.9388 6.92344 13.9432 6.8082 13.961C6.79934 13.9388 6.7949 13.9166 6.78604 13.8899C7.40214 13.6277 8.02267 13.3744 8.63434 13.1077C12.4684 11.4232 16.2226 9.59658 19.5912 7.09436C20.3359 6.54325 21.0495 5.96102 21.6966 5.30769C20.522 3.63214 18.9219 2.2188 16.9628 1.25436C10.9525 -1.69231 3.84736 0.729913 1.09042 6.66325C-1.6621 12.5966 0.975176 19.7966 6.98993 22.7432C13.0047 25.6899 20.1098 23.2677 22.8623 17.3344C22.8667 17.3299 22.8667 17.321 22.8712 17.3166C22.3304 17.3966 21.7808 17.3966 21.2312 17.3699C19.2189 17.2632 17.2642 16.8055 15.2563 16.2188C16.3068 16.2499 17.2864 16.2988 18.2615 16.3077C19.7065 16.3166 21.1425 16.2366 22.5387 15.8632C22.88 15.7699 23.2169 15.6677 23.5316 15.5255C23.6779 14.9921 23.7887 14.4544 23.8596 13.9166C23.7577 14.0188 23.6468 14.1121 23.5227 14.1966C22.7825 14.6988 21.9271 14.8899 21.0539 15.0144C19.179 15.281 17.2908 15.1832 15.3982 15.0455C15.1101 15.0232 14.8175 14.9921 14.5294 14.8899C15.1766 14.7921 15.8192 14.7032 16.4664 14.5966C18.1773 14.3121 19.8749 13.9744 21.4838 13.3255C22.0512 13.0988 22.6097 12.8232 23.115 12.4855C23.4208 12.281 23.6779 12.0055 23.9438 11.7344C23.9128 11.1299 23.833 10.5255 23.7089 9.93436C23.5272 10.4455 23.2258 10.9255 22.8047 11.3255Z" fill="#999999"/>
</g>
<defs>
<clipPath id="clip0_519_2140">
<rect width="134" height="24" fill="white"/>
</clipPath>
</defs>
</svg>
