<svg width="24" height="24" viewBox="0 0 24 24" fill="none" xmlns="http://www.w3.org/2000/svg">
<path fill-rule="evenodd" clip-rule="evenodd" d="M4 3.74609C4 2.77959 4.7835 1.99609 5.75 1.99609H18.25C19.2165 1.99609 20 2.7796 20 3.74609V20.0963C20 21.5065 18.4174 22.3375 17.2565 21.5369L12.1419 18.0096C12.0565 17.9507 11.9435 17.9507 11.8581 18.0096L6.74353 21.5369C5.58261 22.3375 4 21.5065 4 20.0963V3.74609ZM15.3803 8.681C15.6732 8.38811 15.6732 7.91324 15.3803 7.62034C15.0874 7.32745 14.6126 7.32745 14.3197 7.62034L11 10.94L9.88033 9.82034C9.58744 9.52745 9.11256 9.52745 8.81967 9.82034C8.52677 10.1132 8.52677 10.5881 8.81967 10.881L10.4697 12.531C10.6103 12.6717 10.8011 12.7507 11 12.7507C11.1989 12.7507 11.3897 12.6717 11.5303 12.531L15.3803 8.681Z" fill="#012DFF"/>
</svg>
