<svg width="16" height="16" viewBox="0 0 16 16" fill="none" xmlns="http://www.w3.org/2000/svg">
<path d="M3.79374 13.5416L3.19499 13.5802L3.79374 13.5416ZM12.2076 13.5416L12.8063 13.5803V13.5802L12.2076 13.5416ZM1.83398 3.23203C1.50261 3.23203 1.23398 3.50066 1.23398 3.83203C1.23398 4.1634 1.50261 4.43203 1.83398 4.43203V3.23203ZM14.1673 4.43203C14.4987 4.43203 14.7673 4.1634 14.7673 3.83203C14.7673 3.50066 14.4987 3.23203 14.1673 3.23203V4.43203ZM7.10065 7.16536C7.10065 6.83399 6.83202 6.56536 6.50065 6.56536C6.16928 6.56536 5.90065 6.83399 5.90065 7.16536H7.10065ZM5.90065 10.832C5.90065 11.1634 6.16928 11.432 6.50065 11.432C6.83202 11.432 7.10065 11.1634 7.10065 10.832H5.90065ZM10.1007 7.16536C10.1007 6.83399 9.83202 6.56536 9.50065 6.56536C9.16928 6.56536 8.90065 6.83399 8.90065 7.16536H10.1007ZM8.90065 10.832C8.90065 11.1634 9.16928 11.432 9.50065 11.432C9.83202 11.432 10.1007 11.1634 10.1007 10.832H8.90065ZM10.0023 3.98159C10.0849 4.3025 10.412 4.49569 10.7329 4.41309C11.0538 4.3305 11.247 4.00339 11.1644 3.68248L10.0023 3.98159ZM3.16732 3.83203L2.56856 3.87066L3.19499 13.5802L3.79374 13.5416L4.3925 13.503L3.76607 3.7934L3.16732 3.83203ZM4.45903 14.1654V14.7654H11.5423V14.1654V13.5654H4.45903V14.1654ZM12.2076 13.5416L12.8063 13.5802L13.4327 3.87066L12.834 3.83203L12.2352 3.7934L11.6088 13.503L12.2076 13.5416ZM12.834 3.83203V3.23203H3.16732V3.83203V4.43203H12.834V3.83203ZM1.83398 3.83203V4.43203H3.16732V3.83203V3.23203H1.83398V3.83203ZM12.834 3.83203V4.43203H14.1673V3.83203V3.23203H12.834V3.83203ZM11.5423 14.1654V14.7654C12.2102 14.7654 12.7633 14.2468 12.8063 13.5803L12.2076 13.5416L11.6088 13.503C11.6065 13.5381 11.5774 13.5654 11.5423 13.5654V14.1654ZM3.79374 13.5416L3.19499 13.5802C3.23799 14.2468 3.79113 14.7654 4.45903 14.7654V14.1654V13.5654C4.42387 13.5654 4.39476 13.5381 4.3925 13.503L3.79374 13.5416ZM6.50065 7.16536H5.90065V10.832H6.50065H7.10065V7.16536H6.50065ZM9.50065 7.16536H8.90065V10.832H9.50065H10.1007V7.16536H9.50065ZM8.00066 1.83203V2.43203C8.96283 2.43203 9.7728 3.09009 10.0023 3.98159L10.5833 3.83203L11.1644 3.68248C10.8018 2.27367 9.52362 1.23203 8.00066 1.23203V1.83203ZM5.41801 3.83203L5.99907 3.98159C6.22853 3.09009 7.0385 2.43203 8.00066 2.43203V1.83203V1.23203C6.47771 1.23203 5.19955 2.27367 4.83695 3.68248L5.41801 3.83203Z" fill="#111111"/>
</svg>
