<svg width="160" height="160" viewBox="0 0 160 160" fill="none" xmlns="http://www.w3.org/2000/svg">
<path fill-rule="evenodd" clip-rule="evenodd" d="M107.325 136.26H48.54C44.4024 136.26 41.0156 132.864 41.0156 128.712V44.8825C41.0156 40.731 44.4024 37.3359 48.54 37.3359H107.325C111.464 37.3359 114.851 40.731 114.851 44.8825V128.712C114.851 132.864 111.464 136.26 107.325 136.26Z" fill="#BED1F8"/>
<path fill-rule="evenodd" clip-rule="evenodd" d="M101.11 131.085H42.204C38.0579 131.085 34.6641 127.703 34.6641 123.568V40.0856C34.6641 35.9514 38.0579 32.5703 42.204 32.5703H101.11C105.258 32.5703 108.652 35.9514 108.652 40.0856V123.568C108.652 127.703 105.258 131.085 101.11 131.085Z" fill="#EEF3FF"/>
<path fill-rule="evenodd" clip-rule="evenodd" d="M92.6205 58.012H49.1112C47.8687 58.012 46.8516 57.0444 46.8516 55.8623C46.8516 54.6786 47.8687 53.7109 49.1112 53.7109H92.6205C93.8631 53.7109 94.8801 54.6786 94.8801 55.8623C94.8801 57.0444 93.8631 58.012 92.6205 58.012Z" fill="#BED1F8"/>
<path fill-rule="evenodd" clip-rule="evenodd" d="M92.6205 70.9183H49.1112C47.8687 70.9183 46.8516 69.9506 46.8516 68.7685C46.8516 67.5848 47.8687 66.6172 49.1112 66.6172H92.6205C93.8631 66.6172 94.8801 67.5848 94.8801 68.7685C94.8801 69.9506 93.8631 70.9183 92.6205 70.9183Z" fill="#BED1F8"/>
<path fill-rule="evenodd" clip-rule="evenodd" d="M92.6205 83.8167H49.1112C47.8687 83.8167 46.8516 82.8491 46.8516 81.667C46.8516 80.4849 47.8687 79.5156 49.1112 79.5156H92.6205C93.8631 79.5156 94.8801 80.4849 94.8801 81.667C94.8801 82.8491 93.8631 83.8167 92.6205 83.8167Z" fill="#BED1F8"/>
<path fill-rule="evenodd" clip-rule="evenodd" d="M92.6205 96.7151H49.1112C47.8687 96.7151 46.8516 95.7475 46.8516 94.5654C46.8516 93.3817 47.8687 92.4141 49.1112 92.4141H92.6205C93.8631 92.4141 94.8801 93.3817 94.8801 94.5654C94.8801 95.7475 93.8631 96.7151 92.6205 96.7151Z" fill="#BED1F8"/>
<path fill-rule="evenodd" clip-rule="evenodd" d="M71.8224 109.621H49.1209C47.873 109.621 46.8516 108.654 46.8516 107.472C46.8516 106.288 47.873 105.32 49.1209 105.32H71.8224C73.0702 105.32 74.0917 106.288 74.0917 107.472C74.0917 108.654 73.0702 109.621 71.8224 109.621Z" fill="#BED1F8"/>
<path fill-rule="evenodd" clip-rule="evenodd" d="M93.3423 101.087C84.8444 101.086 77.7867 94.9866 76.291 86.9305C76.1073 85.8935 76.0057 84.8332 76.0056 83.7498C76.0046 83.193 76.0286 82.6433 76.083 82.0935C76.1907 80.995 76.3999 79.9179 76.709 78.8977C77.2051 77.1489 77.9703 75.5318 78.9689 74.0681C82.0798 69.4568 87.3575 66.4227 93.3313 66.4241C99.3212 66.4237 104.592 69.4658 107.711 74.0705C108.702 75.5407 109.468 77.1587 109.972 78.9006C110.274 79.9297 110.474 80.9979 110.583 82.0974C110.638 82.6453 110.661 83.1959 110.66 83.7528C110.661 84.8371 110.568 85.9035 110.375 86.9334C108.883 94.9893 101.824 101.087 93.3423 101.087Z" fill="white" fill-opacity="0.1"/>
<path fill-rule="evenodd" clip-rule="evenodd" d="M99.8678 99.0078L106.011 105.151L101.65 109.511L95.5078 103.368C96.3184 102.763 97.0978 102.086 97.8437 101.342C98.5872 100.599 99.2647 99.8184 99.8678 99.0078Z" fill="url(#paint0_linear_822_3574)"/>
<path fill-rule="evenodd" clip-rule="evenodd" d="M124.676 127.163L124.31 127.543C121.89 130.061 117.431 130.557 115.009 128.039L98.5625 111.592L107.733 102.055L124.18 118.502C126.601 121.02 127.002 124.837 124.676 127.163Z" fill="url(#paint1_linear_822_3574)"/>
<path opacity="0.8" fill-rule="evenodd" clip-rule="evenodd" d="M99.7987 87.2067C99.7995 96.0677 92.6193 103.246 83.7583 103.247C74.908 103.247 67.7279 96.0669 67.7287 87.2059C67.7287 78.3556 74.908 71.1763 83.7583 71.1763C92.6185 71.1763 99.7987 78.3564 99.7987 87.2067Z" fill="#EEF3FF"/>
<path fill-rule="evenodd" clip-rule="evenodd" d="M95.0544 98.5406C88.7893 104.807 78.6362 104.806 72.3699 98.5406C66.1118 92.2825 66.1118 82.1282 72.3781 75.8631C78.6362 69.605 88.7893 69.605 95.0474 75.8631C101.312 82.1282 101.312 92.2825 95.0544 98.5406ZM98.2702 72.6446C90.2284 64.6028 77.1969 64.6028 69.1551 72.6446C61.1144 80.6853 61.1074 93.7249 69.1481 101.767C76.4671 109.083 87.9387 109.743 96.0073 103.736C96.7954 103.148 97.5544 102.49 98.2783 101.767C99.0011 101.043 99.6598 100.284 100.246 99.4957C106.254 91.426 105.588 79.9625 98.2702 72.6446Z" fill="url(#paint2_linear_822_3574)"/>
<defs>
<linearGradient id="paint0_linear_822_3574" x1="100.759" y1="99.0078" x2="100.759" y2="109.511" gradientUnits="userSpaceOnUse">
<stop stop-color="#7B8EB5"/>
<stop offset="1" stop-color="#7285AC"/>
</linearGradient>
<linearGradient id="paint1_linear_822_3574" x1="115.229" y1="84.7214" x2="80.5892" y2="118.029" gradientUnits="userSpaceOnUse">
<stop stop-color="#96A9D0"/>
<stop offset="1" stop-color="#7688AF"/>
</linearGradient>
<linearGradient id="paint2_linear_822_3574" x1="74.3746" y1="70.29" x2="106.676" y2="115.512" gradientUnits="userSpaceOnUse">
<stop stop-color="#AEC1E8"/>
<stop offset="0.745" stop-color="#7F92B9"/>
</linearGradient>
</defs>
</svg>
