<svg width="48" height="48" viewBox="0 0 48 48" fill="none" xmlns="http://www.w3.org/2000/svg">
<path d="M23.9999 1.5C17.1813 1.5 12.5251 1.85523 9.64633 2.19108C6.7582 2.52802 4.55559 4.71734 4.22635 7.6164C3.87691 10.6933 3.5 15.8905 3.5 24C3.5 32.1095 3.87691 37.3067 4.22635 40.3836C4.55559 43.2827 6.75819 45.472 9.64633 45.8089C12.5251 46.1448 17.1813 46.5 23.9999 46.5C30.8184 46.5 35.4746 46.1448 38.3534 45.8089C41.2415 45.472 43.4441 43.2827 43.7734 40.3836C44.1228 37.3067 44.4997 32.1095 44.4997 24C44.4997 20.9628 44.4468 18.3343 44.3624 16.073C44.3566 15.9184 44.3269 15.7657 44.2745 15.6202C43.8161 14.3489 42.414 11.4464 38.3518 7.48474C34.0409 3.28068 30.9598 2.00453 29.8134 1.64802C29.6842 1.60783 29.5501 1.58532 29.4149 1.58108C27.7869 1.53011 25.9851 1.5 23.9999 1.5Z" fill="#CCD5FF"/>
<path d="M44.3301 15.8153C41.7905 15.8142 37.416 15.7741 34.911 15.5338C32.1814 15.2719 30.0347 13.0938 29.7673 10.3051C29.546 7.99772 29.502 4.14284 29.5 1.58594C29.6062 1.59534 29.7112 1.61605 29.8132 1.64776C30.9596 2.00428 34.0408 3.28041 38.3516 7.48448C42.4138 11.4461 43.8159 14.3487 44.2743 15.6199C44.2973 15.6838 44.316 15.7491 44.3301 15.8153Z" fill="#012DFF"/>
<path fill-rule="evenodd" clip-rule="evenodd" d="M20 35C20 36.1046 20.8954 37 22 37H33C34.1046 37 35 36.1046 35 35C35 33.8954 34.1046 33 33 33H22C20.8954 33 20 33.8954 20 35ZM22 28C20.8954 28 20 27.1046 20 26C20 24.8954 20.8954 24 22 24H29C30.1046 24 31 24.8954 31 26C31 27.1046 30.1046 28 29 28H22ZM13 35C13 36.1046 13.8954 37 15 37H16C17.1046 37 18 36.1046 18 35C18 33.8954 17.1046 33 16 33H15C13.8954 33 13 33.8954 13 35ZM15 28C13.8954 28 13 27.1046 13 26C13 24.8954 13.8954 24 15 24H16C17.1046 24 18 24.8954 18 26C18 27.1046 17.1046 28 16 28H15Z" fill="#012DFF"/>
</svg>
