<svg width="20" height="20" viewBox="0 0 20 20" fill="none" xmlns="http://www.w3.org/2000/svg">
<path d="M18.125 10C18.125 5.70312 14.9653 3.125 10 3.125C5.03472 3.125 1.875 5.70312 1.875 10C1.875 11.114 2.64212 13.0046 2.76208 13.2935C2.77285 13.3194 2.78351 13.3431 2.79317 13.3694C2.87574 13.5947 3.21435 14.7939 1.875 16.569C3.68056 17.4284 5.59805 16.0156 5.59805 16.0156C6.92469 16.7164 8.5032 16.875 10 16.875C14.9653 16.875 18.125 14.2969 18.125 10Z" stroke="#111111" stroke-width="1.5" stroke-linecap="square" stroke-linejoin="round"/>
<path d="M6.24902 9.33203C6.61706 9.33221 6.91504 9.63094 6.91504 9.99902C6.91486 10.367 6.61695 10.6649 6.24902 10.665C5.88094 10.665 5.58221 10.3671 5.58203 9.99902C5.58203 9.63083 5.88083 9.33203 6.24902 9.33203ZM9.99902 9.33203C10.3671 9.33221 10.665 9.63094 10.665 9.99902C10.6649 10.367 10.367 10.6649 9.99902 10.665C9.63094 10.665 9.33221 10.3671 9.33203 9.99902C9.33203 9.63083 9.63083 9.33203 9.99902 9.33203ZM13.749 9.33203C14.1171 9.33221 14.415 9.63094 14.415 9.99902C14.4149 10.367 14.117 10.6649 13.749 10.665C13.3809 10.665 13.0822 10.3671 13.082 9.99902C13.082 9.63083 13.3808 9.33203 13.749 9.33203Z" fill="#111111" stroke="#111111" stroke-width="0.5" stroke-linecap="square"/>
</svg>
