<svg width="266" height="40" viewBox="0 0 266 40" fill="none" xmlns="http://www.w3.org/2000/svg">
<g clip-path="url(#clip0_519_2192)">
<path d="M57.664 11.5195V24.8639H69.958V27.4711H54.8242V11.5283H57.664V11.5195Z" fill="white" stroke="white" stroke-width="0.2835" stroke-miterlimit="10"/>
<path d="M87.0927 11.5195V14.1267H74.7987V18.3899H86.8131V20.9971H74.7987V24.8639H87.6607V27.4711H71.959V11.5283H87.0927V11.5195Z" fill="white" stroke="white" stroke-width="0.2835" stroke-miterlimit="10"/>
<path d="M93.0605 11.5195L103.083 23.4281V11.5195H105.922V27.4623H103.083L93.0605 15.5801V27.4623H90.2207V11.5195H93.0605Z" fill="white" stroke="white" stroke-width="0.2835" stroke-miterlimit="10"/>
<path d="M126.493 19.6142C126.493 24.5644 123.566 27.4623 120.813 27.4623H109.332V11.5195H120.805C123.566 11.5195 126.493 14.3822 126.493 19.6142ZM119.704 24.8551C121.521 24.8551 123.653 22.9085 123.653 19.6142C123.653 16.0117 121.521 14.1179 119.704 14.1179H112.233V24.8551H119.704Z" fill="white" stroke="white" stroke-width="0.2835" stroke-miterlimit="10"/>
<path d="M144.185 11.5195V14.1267H131.891V18.3899H143.905V20.9971H131.891V24.8639H144.752V27.4711H129.051V11.5283H144.185V11.5195Z" fill="white" stroke="white" stroke-width="0.2835" stroke-miterlimit="10"/>
<path d="M162.762 16.3288C162.762 18.1344 162.255 19.4469 161.311 20.2836C162.473 21.7458 163.041 24.1504 163.041 27.4975H160.202C160.202 22.8292 159.232 21.2261 156.252 21.2261H150.206V27.4975H147.305V11.5195H158.498C161.25 11.5195 162.762 13.2371 162.762 16.3288ZM157.108 18.6189C158.926 18.6189 159.922 17.8173 159.922 16.3552C159.922 14.893 158.926 14.0915 157.108 14.0915H150.206V18.6189H157.108Z" fill="white" stroke="white" stroke-width="0.2835" stroke-miterlimit="10"/>
<path d="M174.941 25.0573C177.554 25.1718 180.001 24.9428 180.219 23.4013C180.507 21.6837 179.022 20.706 175.649 20.2832C171.446 19.7724 166.649 19.5698 166.649 15.7294C166.649 11.0347 173.666 11.1756 175.937 11.3254C178.952 11.528 181.643 12.7259 182.779 16.1346H179.939C179.511 15.1305 178.576 14.0471 175.029 13.8709C173.15 13.7828 169.716 13.959 169.489 15.4123C169.262 16.9009 171.167 17.1299 174.574 17.5615C178.751 18.0724 183.094 18.9092 183.094 23.1723C183.094 28.0696 176.479 27.7526 174.207 27.6116C169.375 27.2945 167.392 24.8371 166.457 22.5734H169.271C170.424 23.9122 171.708 24.9163 174.941 25.0573Z" fill="white" stroke="white" stroke-width="0.2835" stroke-miterlimit="10"/>
<path d="M188.773 11.5195V18.3899H198.796V11.5195H201.635V27.4623H198.796V20.9883H188.773V27.4623H185.934V11.5195H188.773Z" fill="white" stroke="white" stroke-width="0.2835" stroke-miterlimit="10"/>
<path d="M208.461 11.5195V27.4623H205.621V11.5195H208.461Z" fill="white" stroke="white" stroke-width="0.2835" stroke-miterlimit="10"/>
<path d="M227.578 11.5195V14.1267H215.284V18.3899H227.298V20.9971H215.284V24.8639H228.146V27.4711H212.436V11.5283H227.578V11.5195Z" fill="white" stroke="white" stroke-width="0.2835" stroke-miterlimit="10"/>
<path d="M233.537 11.5195V24.8639H245.831V27.4711H230.697V11.5283H233.537V11.5195Z" fill="white" stroke="white" stroke-width="0.2835" stroke-miterlimit="10"/>
<path d="M264.984 19.6142C264.984 24.5644 262.057 27.4623 259.305 27.4623H247.832V11.5195H259.305C262.057 11.5195 264.984 14.3822 264.984 19.6142ZM258.195 24.8551C260.012 24.8551 262.144 22.9085 262.144 19.6142C262.144 16.0117 260.012 14.1179 258.195 14.1179H250.724V24.8551H258.195Z" fill="white" stroke="white" stroke-width="0.2835" stroke-miterlimit="10"/>
<path d="M37.362 18.8592C35.9731 20.1946 34.2413 20.9384 32.4304 21.4761C28.6152 22.6143 24.6682 22.8742 20.6508 22.8114C20.8442 22.7577 21.0376 22.6949 21.231 22.6412C25.1516 21.5478 29.0108 20.2842 32.5886 18.3126C34.5929 17.2103 36.5005 15.9556 37.8191 13.9929C37.8895 13.8854 37.9598 13.7689 38.0213 13.6524C37.8104 13.0609 37.573 12.4873 37.3093 11.9227C37.2214 12.093 37.1335 12.2543 37.028 12.4156C35.9555 14.0288 34.4874 15.1849 32.8787 16.1707C29.7756 18.0706 26.4087 19.4149 22.91 20.3917C19.2091 21.4223 15.4466 22.2558 11.7106 23.1699C11.5259 23.2147 11.3326 23.2237 11.1479 23.2506C11.1392 23.2147 11.1216 23.1699 11.1128 23.1341C12.1237 22.6949 13.1347 22.2737 14.1368 21.8256C20.4222 19.0206 26.567 15.9735 32.0876 11.8152C33.3007 10.9011 34.4787 9.9332 35.5335 8.83984C33.6084 6.0527 30.9887 3.69572 27.7801 2.09154C17.9432 -2.81958 6.30423 1.21328 1.78577 11.0982C-2.72389 20.9832 1.60117 32.9832 11.4556 37.8853C21.3101 42.7965 32.9491 38.7636 37.4587 28.8786C37.4675 28.8697 37.4675 28.8607 37.4763 28.8428C36.5884 28.9772 35.6918 28.9772 34.7863 28.9324C31.4898 28.7532 28.29 27.9914 24.9934 27.0146C26.7164 27.0683 28.3163 27.149 29.9162 27.158C32.281 27.1759 34.6369 27.0414 36.9225 26.4231C37.4851 26.2707 38.0301 26.0915 38.5488 25.8585C38.7861 24.9713 38.9707 24.0751 39.085 23.1789C38.918 23.3491 38.7422 23.5015 38.5312 23.6449C37.3181 24.4783 35.9203 24.801 34.4787 25.0071C31.4107 25.4462 28.3075 25.2849 25.2132 25.0609C24.7385 25.025 24.2638 24.9713 23.7891 24.801C24.844 24.6397 25.9077 24.4963 26.9625 24.317C29.7668 23.8421 32.5447 23.2775 35.1819 22.202C36.1137 21.8256 37.028 21.3596 37.8543 20.804C38.3554 20.4634 38.7773 20.0064 39.2081 19.5493C39.1553 18.5366 39.0235 17.5418 38.8301 16.556C38.5488 17.3985 38.0565 18.1961 37.362 18.8592Z" fill="white"/>
</g>
<defs>
<clipPath id="clip0_519_2192">
<rect width="266" height="39.9769" fill="white"/>
</clipPath>
</defs>
</svg>
