<svg width="240" height="240" viewBox="0 0 240 240" fill="none" xmlns="http://www.w3.org/2000/svg">
<path d="M72.4773 63.3328C72.4773 63.3328 98.212 82.862 137.335 46.346C172.081 13.9171 200.451 65.0827 200.649 89.5854C200.906 121.325 165.904 146.722 182.891 167.569C199.877 188.417 149.203 222.843 121.893 193.049C87.9194 155.987 78.7158 186.101 59.3512 186.101C45.4529 186.101 16.9185 151.566 36.1875 125.874C52.4022 104.255 43.5589 97.0803 39.2765 89.5854C33.099 78.7753 47.7694 49.4347 72.4773 63.3328Z" fill="#EEF3FF"/>
<path d="M175.794 106.488C177.178 107.002 178.689 107.036 180.127 106.705C186.153 105.323 206.873 101.66 203.273 117.716C202.488 120.901 190.354 138.742 207.635 145.254C208.902 145.737 210.24 146.001 211.596 146.034C216.917 146.143 227.46 144.887 231.873 140.395C237.204 134.969 231.38 137.542 231.38 137.542C231.38 137.542 211.114 146.386 203.955 137.003C203.159 135.959 202.651 134.443 202.506 133.137C202.254 130.874 203.259 127.884 204.579 125.28C206.366 121.756 214.944 105.905 196.319 101.287C192.029 100.266 185.798 99.3485 177.764 102.731C173.077 104.704 174.115 105.864 175.794 106.488Z" fill="#BED1F8"/>
<path d="M179.94 100.569L174.546 102.589C172.684 103.285 171.74 105.36 172.436 107.221L172.704 107.936C173.401 109.798 175.475 110.743 177.337 110.046L182.732 108.027C184.593 107.33 185.538 105.256 184.841 103.393L184.574 102.679C183.877 100.817 181.802 99.8723 179.94 100.569Z" fill="url(#paint0_linear_823_3368)"/>
<path d="M146.826 106.412L129.037 113.07C128.106 113.418 127.633 114.455 127.982 115.386L128.052 115.574C128.4 116.505 129.438 116.977 130.369 116.629L148.158 109.971C149.09 109.622 149.562 108.585 149.214 107.654L149.143 107.466C148.795 106.535 147.758 106.063 146.826 106.412Z" fill="white"/>
<path d="M151.795 119.677L134.005 126.335C133.074 126.684 132.602 127.721 132.951 128.652L133.02 128.839C133.369 129.77 134.406 130.243 135.337 129.894L153.127 123.236C154.058 122.887 154.53 121.85 154.182 120.919L154.112 120.732C153.764 119.801 152.726 119.329 151.795 119.677Z" fill="white"/>
<path d="M168.219 97.3583L153.801 102.754C151.938 103.451 150.993 105.526 151.69 107.388L156.614 120.541C157.311 122.402 159.385 123.347 161.247 122.65L175.665 117.254C177.527 116.557 178.472 114.483 177.775 112.621L172.852 99.4677C172.155 97.606 170.081 96.6614 168.219 97.3583Z" fill="url(#paint1_linear_823_3368)"/>
<path d="M155.289 100.807L140.87 106.204C139.008 106.901 138.064 108.975 138.761 110.838L144.634 126.529C145.331 128.391 147.405 129.336 149.267 128.639L163.685 123.243C165.547 122.546 166.492 120.472 165.795 118.609L159.922 102.918C159.225 101.055 157.151 100.111 155.289 100.807Z" fill="#BED1F8"/>
<path d="M157.548 97.6255L157.434 97.6675C156.193 98.1321 155.563 99.5155 156.028 100.757L164.256 122.74C164.72 123.981 166.103 124.611 167.344 124.146L167.457 124.104C168.699 123.639 169.328 122.256 168.864 121.015L160.637 99.0321C160.172 97.791 158.789 97.1609 157.548 97.6255Z" fill="url(#paint2_linear_823_3368)"/>
<path d="M10.5274 111.68C10.5274 111.68 39.4843 103.542 35.2803 122.291C34.5502 125.258 24.0407 140.532 36.5591 147.866C39.2471 149.44 42.3491 150.138 45.4642 150.122C51.0493 150.093 59.9035 149.018 63.8812 144.97C69.212 139.543 63.3883 142.116 63.3883 142.116C63.3883 142.116 46.7578 148.957 38.2021 143.504C35.2807 141.642 33.9565 138.037 34.7497 134.664C35.1553 132.989 35.7727 131.373 36.5872 129.854C38.4479 126.369 46.9519 110.479 28.3279 105.862C24.0376 104.84 17.8063 103.923 9.77174 107.305C1.73715 110.688 10.5274 111.68 10.5274 111.68Z" fill="#BED1F8"/>
<path d="M67.7724 137.921L62.3782 139.94C60.5161 140.637 59.5715 142.711 60.2685 144.574L60.5359 145.288C61.2327 147.15 63.3072 148.095 65.1693 147.397L70.5635 145.379C72.4256 144.682 73.3701 142.608 72.6733 140.745L72.4058 140.031C71.709 138.168 69.6344 137.224 67.7724 137.921Z" fill="url(#paint3_linear_823_3368)"/>
<path d="M76.8883 129.046L68.8938 132.038C67.0317 132.735 66.0871 134.809 66.7841 136.672L70.639 146.971C71.3359 148.834 73.4104 149.778 75.2724 149.081L83.2669 146.089C85.1291 145.392 86.0734 143.318 85.3767 141.455L81.5218 131.156C80.8248 129.293 78.7504 128.349 76.8883 129.046Z" fill="url(#paint4_linear_823_3368)"/>
<path d="M90.1984 121.116L78.2766 125.578C76.4145 126.275 75.4699 128.349 76.1669 130.212L82.0398 145.904C82.7367 147.766 84.8112 148.711 86.673 148.014L98.595 143.552C100.458 142.855 101.402 140.781 100.705 138.918L94.8321 123.226C94.1353 121.364 92.061 120.419 90.1984 121.116Z" fill="#BED1F8"/>
<path d="M92.8211 118.063L92.708 118.105C91.466 118.57 90.8368 119.953 91.3014 121.194L99.5283 143.177C99.9928 144.418 101.376 145.048 102.617 144.584L102.731 144.541C103.972 144.076 104.602 142.694 104.137 141.452L95.9094 119.47C95.4448 118.228 94.0623 117.598 92.8211 118.063Z" fill="url(#paint5_linear_823_3368)"/>
<path d="M123.168 103.862C122.738 103.814 122.344 103.602 122.068 103.27C121.793 102.937 121.656 102.511 121.688 102.08L122.578 85.8321C122.631 84.8615 123.45 84.1241 124.38 84.2099L125.676 84.3299C126.606 84.4157 127.272 85.2899 127.142 86.2538L124.956 102.382C124.907 102.811 124.692 103.205 124.359 103.481C124.026 103.757 123.599 103.893 123.168 103.862Z" fill="url(#paint6_linear_823_3368)"/>
<path d="M115.485 105.26C115.351 105.299 115.211 105.312 115.072 105.298C114.934 105.282 114.8 105.24 114.678 105.173C114.555 105.107 114.448 105.017 114.361 104.908C114.273 104.8 114.208 104.675 114.169 104.542L110.992 94.435C110.9 94.1478 110.925 93.835 111.063 93.5667C111.201 93.2975 111.439 93.0944 111.727 93.0018L112.549 92.7533C112.69 92.7121 112.839 92.701 112.984 92.7198C113.13 92.7387 113.27 92.7875 113.396 92.8638C113.522 92.9393 113.631 93.0404 113.715 93.1604C113.8 93.2804 113.859 93.4167 113.889 93.5607L116.243 103.917C116.309 104.194 116.267 104.488 116.127 104.737C115.986 104.986 115.757 105.172 115.485 105.26Z" fill="url(#paint7_linear_823_3368)"/>
<path d="M111.198 111.09C110.628 111.795 109.483 111.787 108.602 111.071L92.9584 98.3605C92.0233 97.6011 91.7481 96.3445 92.3516 95.5971L93.1933 94.5548C93.7976 93.8065 95.037 93.8682 95.9216 94.6894L110.724 108.443C111.558 109.217 111.767 110.385 111.198 111.09Z" fill="url(#paint8_linear_823_3368)"/>
<path d="M118.43 143.919C118.832 144.075 119.159 144.381 119.341 144.773C119.523 145.164 119.546 145.612 119.405 146.02L114.395 161.502C114.096 162.426 113.115 162.93 112.238 162.609L111.014 162.162C110.138 161.842 109.717 160.826 110.089 159.929L116.321 144.894C116.48 144.491 116.786 144.165 117.18 143.983C117.572 143.802 118.02 143.778 118.43 143.919Z" fill="url(#paint9_linear_823_3368)"/>
<path d="M126.212 144.528C126.351 144.524 126.49 144.548 126.62 144.597C126.75 144.647 126.869 144.722 126.97 144.818C127.071 144.913 127.153 145.028 127.209 145.154C127.266 145.281 127.297 145.418 127.301 145.558L127.791 156.141C127.807 156.443 127.703 156.738 127.501 156.962C127.299 157.188 127.016 157.323 126.715 157.34L125.857 157.37C125.709 157.373 125.563 157.346 125.427 157.291C125.291 157.235 125.168 157.152 125.065 157.046C124.963 156.941 124.884 156.816 124.832 156.678C124.782 156.54 124.759 156.393 124.767 156.247L125.136 145.634C125.143 145.347 125.259 145.075 125.458 144.87C125.658 144.665 125.927 144.543 126.212 144.528Z" fill="url(#paint10_linear_823_3368)"/>
<path d="M131.849 139.984C132.579 139.448 133.684 139.749 134.353 140.666L146.233 156.95C146.942 157.923 146.888 159.208 146.113 159.777L145.033 160.57C144.258 161.139 143.074 160.762 142.429 159.742L131.629 142.665C131.022 141.704 131.119 140.521 131.849 139.984Z" fill="url(#paint11_linear_823_3368)"/>
<defs>
<linearGradient id="paint0_linear_823_3368" x1="178.639" y1="100.34" x2="178.639" y2="110.275" gradientUnits="userSpaceOnUse">
<stop stop-color="#7B8EB5"/>
<stop offset="1" stop-color="#7285AC"/>
</linearGradient>
<linearGradient id="paint1_linear_823_3368" x1="158.714" y1="98.5623" x2="164.397" y2="122.958" gradientUnits="userSpaceOnUse">
<stop stop-color="#E0E2EE"/>
<stop offset="0.201923" stop-color="#AAB6D1"/>
<stop offset="0.567308" stop-color="#8194BB"/>
</linearGradient>
<linearGradient id="paint2_linear_823_3368" x1="162.446" y1="97.4727" x2="162.446" y2="124.299" gradientUnits="userSpaceOnUse">
<stop stop-color="#7B8EB5"/>
<stop offset="1" stop-color="#7285AC"/>
</linearGradient>
<linearGradient id="paint3_linear_823_3368" x1="66.4708" y1="137.691" x2="66.4708" y2="147.627" gradientUnits="userSpaceOnUse">
<stop stop-color="#7B8EB5"/>
<stop offset="1" stop-color="#7285AC"/>
</linearGradient>
<linearGradient id="paint4_linear_823_3368" x1="71.7605" y1="129.957" x2="76.7171" y2="149.146" gradientUnits="userSpaceOnUse">
<stop stop-color="#E0E2EE"/>
<stop offset="0.201923" stop-color="#AAB6D1"/>
<stop offset="0.567308" stop-color="#8194BB"/>
</linearGradient>
<linearGradient id="paint5_linear_823_3368" x1="97.7192" y1="117.91" x2="97.7192" y2="144.737" gradientUnits="userSpaceOnUse">
<stop stop-color="#7B8EB5"/>
<stop offset="1" stop-color="#7285AC"/>
</linearGradient>
<linearGradient id="paint6_linear_823_3368" x1="124.421" y1="84.2031" x2="124.421" y2="103.866" gradientUnits="userSpaceOnUse">
<stop stop-color="#7B8EB5"/>
<stop offset="1" stop-color="#7285AC"/>
</linearGradient>
<linearGradient id="paint7_linear_823_3368" x1="113.606" y1="92.7109" x2="113.606" y2="105.303" gradientUnits="userSpaceOnUse">
<stop stop-color="#7B8EB5"/>
<stop offset="1" stop-color="#7285AC"/>
</linearGradient>
<linearGradient id="paint8_linear_823_3368" x1="101.775" y1="94.0312" x2="101.775" y2="111.614" gradientUnits="userSpaceOnUse">
<stop stop-color="#7B8EB5"/>
<stop offset="1" stop-color="#7285AC"/>
</linearGradient>
<linearGradient id="paint9_linear_823_3368" x1="114.725" y1="143.828" x2="114.725" y2="162.706" gradientUnits="userSpaceOnUse">
<stop stop-color="#7B8EB5"/>
<stop offset="1" stop-color="#7285AC"/>
</linearGradient>
<linearGradient id="paint10_linear_823_3368" x1="126.279" y1="144.527" x2="126.279" y2="157.37" gradientUnits="userSpaceOnUse">
<stop stop-color="#7B8EB5"/>
<stop offset="1" stop-color="#7285AC"/>
</linearGradient>
<linearGradient id="paint11_linear_823_3368" x1="138.981" y1="139.719" x2="138.981" y2="160.835" gradientUnits="userSpaceOnUse">
<stop stop-color="#7B8EB5"/>
<stop offset="1" stop-color="#7285AC"/>
</linearGradient>
</defs>
</svg>
