<svg width="240" height="240" viewBox="0 0 240 240" fill="none" xmlns="http://www.w3.org/2000/svg">
<path d="M94.8888 69.9V127.296C94.915 139.02 104.441 148.518 116.227 148.544C128 148.518 137.538 139.033 137.564 127.296V69.9C137.538 58.1763 128.013 48.6775 116.227 48.6515C104.441 48.6775 94.915 58.1632 94.8888 69.9ZM80.1758 127.296V69.9C80.1888 50.0698 96.3131 34 116.227 34C136.14 34 152.264 50.0698 152.277 69.9V127.296C152.277 147.126 136.14 163.183 116.227 163.196C96.3131 163.196 80.1888 147.126 80.1758 127.296Z" fill="#C6D7F9"/>
<path d="M88.8888 67.9V125.296C88.915 137.02 98.4405 146.518 110.227 146.544C122 146.518 131.538 137.033 131.564 125.296V67.9C131.538 56.1763 122.013 46.6775 110.227 46.6515C98.4405 46.6775 88.915 56.1632 88.8888 67.9ZM74.1758 125.296V67.9C74.1888 48.0698 90.3131 32 110.227 32C130.14 32 146.264 48.0698 146.277 67.9V125.296C146.277 145.126 130.14 161.183 110.227 161.196C90.3131 161.196 74.1888 145.126 74.1758 125.296Z" fill="url(#paint0_linear_824_3595)"/>
<path d="M81.809 94.457H150.644C161.581 94.457 170.453 103.292 170.453 114.183V179.777C170.453 190.668 161.581 199.503 150.644 199.503H81.809C70.8722 199.503 62 190.668 62 179.777V114.196C62 103.305 70.8722 94.47 81.809 94.47V94.457Z" fill="#BED1F8"/>
<path d="M75.809 88.457H144.644C155.581 88.457 164.453 97.2922 164.453 108.183V173.777C164.453 184.668 155.581 193.503 144.644 193.503H75.809C64.8722 193.503 56 184.668 56 173.777V108.196C56 97.3052 64.8722 88.47 75.809 88.47V88.457Z" fill="#EEF3FF"/>
<path d="M119.897 132.894C119.897 127.573 115.572 123.266 110.228 123.266C104.884 123.266 100.559 127.573 100.559 132.894C100.559 136.72 102.806 140.025 106.06 141.573L103.616 156.745C103.407 158.06 104.322 159.14 105.668 159.14H114.814C116.16 159.14 117.075 158.06 116.866 156.745L114.422 141.573C117.676 140.025 119.91 136.72 119.91 132.894H119.897Z" fill="url(#paint1_linear_824_3595)"/>
<path d="M185.998 179.426C185.998 195.209 173.154 208 157.304 208C141.454 208 128.609 195.209 128.609 179.426C128.609 163.642 141.454 150.852 157.304 150.852C173.154 150.852 185.998 163.642 185.998 179.426Z" fill="url(#paint2_linear_824_3595)"/>
<path d="M158.233 162.379H156.377C154.208 162.379 152.549 164.136 152.692 166.296L153.764 182.873C153.907 185.033 155.502 186.789 157.305 186.789C159.108 186.789 160.715 185.033 160.846 182.873L161.917 166.296C162.061 164.149 160.402 162.379 158.233 162.379ZM157.305 189.21C155.293 189.21 153.659 190.836 153.659 192.84C153.659 194.844 155.293 196.47 157.305 196.47C159.317 196.47 160.95 194.844 160.95 192.84C160.95 190.836 159.317 189.21 157.305 189.21Z" fill="white"/>
<defs>
<linearGradient id="paint0_linear_824_3595" x1="110.227" y1="32" x2="110.227" y2="161.196" gradientUnits="userSpaceOnUse">
<stop stop-color="#BED1F8"/>
<stop offset="1" stop-color="#6A8BD0"/>
</linearGradient>
<linearGradient id="paint1_linear_824_3595" x1="104.002" y1="124" x2="120.002" y2="160" gradientUnits="userSpaceOnUse">
<stop stop-color="#A2B2D5"/>
<stop offset="1" stop-color="#7A8CB5"/>
</linearGradient>
<linearGradient id="paint2_linear_824_3595" x1="131.998" y1="154" x2="185.998" y2="208" gradientUnits="userSpaceOnUse">
<stop stop-color="#AABDE4"/>
<stop offset="1" stop-color="#778BB4"/>
</linearGradient>
</defs>
</svg>
