<svg width="346" height="52" viewBox="0 0 346 52" fill="none" xmlns="http://www.w3.org/2000/svg">
<path d="M75.0063 14.9883V32.3459H90.9978V35.7373H71.3125V14.9997H75.0063V14.9883Z" fill="#090A3C" stroke="#090A3C" stroke-width="0.2835" stroke-miterlimit="10"/>
<path d="M113.287 14.9883V18.3796H97.2954V23.9249H112.923V27.3162H97.2954V32.3459H114.026V35.7373H93.6016V14.9997H113.287V14.9883Z" fill="#090A3C" stroke="#090A3C" stroke-width="0.2835" stroke-miterlimit="10"/>
<path d="M121.049 14.9883L134.086 30.4784V14.9883H137.78V35.7258H134.086L121.049 20.2701V35.7258H117.355V14.9883H121.049Z" fill="#090A3C" stroke="#090A3C" stroke-width="0.2835" stroke-miterlimit="10"/>
<path d="M164.533 25.5175C164.533 31.9564 160.726 35.7258 157.145 35.7258H142.211V14.9883H157.134C160.726 14.9883 164.533 18.7119 164.533 25.5175ZM155.702 32.3345C158.066 32.3345 160.839 29.8024 160.839 25.5175C160.839 20.8315 158.066 18.3682 155.702 18.3682H145.984V32.3345H155.702Z" fill="#090A3C" stroke="#090A3C" stroke-width="0.2835" stroke-miterlimit="10"/>
<path d="M187.549 14.9883V18.3796H171.557V23.9249H187.185V27.3162H171.557V32.3459H188.287V35.7373H167.863V14.9997H187.549V14.9883Z" fill="#090A3C" stroke="#090A3C" stroke-width="0.2835" stroke-miterlimit="10"/>
<path d="M211.711 21.2439C211.711 23.5926 211.052 25.2998 209.825 26.3882C211.336 28.2901 212.075 31.4179 212.075 35.7716H208.381C208.381 29.6993 207.12 27.6141 203.244 27.6141H195.379V35.7716H191.605V14.9883H206.165C209.745 14.9883 211.711 17.2224 211.711 21.2439ZM204.358 24.2228C206.722 24.2228 208.017 23.1802 208.017 21.2783C208.017 19.3764 206.722 18.3338 204.358 18.3338H195.379V24.2228H204.358Z" fill="#090A3C" stroke="#090A3C" stroke-width="0.2835" stroke-miterlimit="10"/>
<path d="M227.556 32.5973C230.954 32.7462 234.136 32.4484 234.42 30.4433C234.795 28.2092 232.863 26.9374 228.476 26.3875C223.009 25.723 216.77 25.4595 216.77 20.4641C216.77 14.3574 225.896 14.5408 228.851 14.7355C232.772 14.999 236.273 16.5572 237.751 20.9912H234.057C233.5 19.685 232.284 18.2758 227.669 18.0467C225.226 17.9321 220.759 18.1612 220.463 20.0517C220.168 21.9879 222.646 22.2858 227.078 22.8472C232.511 23.5117 238.16 24.6002 238.16 30.1455C238.16 36.5157 229.556 36.1032 226.601 35.9199C220.316 35.5074 217.736 32.3109 216.52 29.3664H220.179C221.68 31.1079 223.35 32.414 227.556 32.5973Z" fill="#090A3C" stroke="#090A3C" stroke-width="0.2835" stroke-miterlimit="10"/>
<path d="M245.547 14.9883V23.9249H258.584V14.9883H262.278V35.7258H258.584V27.3048H245.547V35.7258H241.854V14.9883H245.547Z" fill="#090A3C" stroke="#090A3C" stroke-width="0.2835" stroke-miterlimit="10"/>
<path d="M271.155 14.9883V35.7258H267.461V14.9883H271.155Z" fill="#090A3C" stroke="#090A3C" stroke-width="0.2835" stroke-miterlimit="10"/>
<path d="M296.023 14.9883V18.3796H280.031V23.9249H295.659V27.3162H280.031V32.3459H296.762V35.7373H276.326V14.9997H296.023V14.9883Z" fill="#090A3C" stroke="#090A3C" stroke-width="0.2835" stroke-miterlimit="10"/>
<path d="M303.774 14.9883V32.3459H319.765V35.7373H300.08V14.9997H303.774V14.9883Z" fill="#090A3C" stroke="#090A3C" stroke-width="0.2835" stroke-miterlimit="10"/>
<path d="M344.678 25.5175C344.678 31.9564 340.87 35.7258 337.29 35.7258H322.367V14.9883H337.29C340.87 14.9883 344.678 18.7119 344.678 25.5175ZM335.847 32.3345C338.211 32.3345 340.984 29.8024 340.984 25.5175C340.984 20.8315 338.211 18.3682 335.847 18.3682H326.129V32.3345H335.847Z" fill="#090A3C" stroke="#090A3C" stroke-width="0.2835" stroke-miterlimit="10"/>
<path d="M48.5987 24.5312C46.7921 26.2681 44.5394 27.2357 42.1839 27.9351C37.2213 29.4156 32.0872 29.7536 26.8615 29.672C27.1131 29.6021 27.3647 29.5205 27.6162 29.4505C32.7161 28.0284 37.7358 26.3847 42.3897 23.8201C44.9968 22.3863 47.4781 20.7543 49.1933 18.2013C49.2848 18.0614 49.3763 17.9099 49.4563 17.7584C49.1819 16.989 48.8732 16.2429 48.5301 15.5085C48.4158 15.73 48.3014 15.9398 48.1642 16.1497C46.7692 18.248 44.8596 19.7517 42.7671 21.034C38.7307 23.5054 34.3512 25.2539 29.8002 26.5246C24.9863 27.8652 20.0922 28.9493 15.2325 30.1383C14.9924 30.1966 14.7408 30.2083 14.5007 30.2432C14.4893 30.1966 14.4664 30.1383 14.455 30.0917C15.77 29.5205 17.0849 28.9726 18.3885 28.3897C26.5642 24.741 34.557 20.7776 41.738 15.3686C43.3159 14.1796 44.8482 12.9206 46.2203 11.4984C43.7161 7.87306 40.3086 4.80721 36.135 2.72058C23.3397 -3.66757 8.20024 1.57817 2.32285 14.4361C-3.54311 27.2939 2.08272 42.9029 14.9009 49.2794C27.7191 55.6676 42.8586 50.4218 48.7245 37.5639C48.7359 37.5523 48.7359 37.5406 48.7474 37.5173C47.5925 37.6922 46.4262 37.6922 45.2484 37.6339C40.9604 37.4007 36.7982 36.4099 32.5102 35.1392C34.7514 35.2092 36.8325 35.3141 38.9136 35.3258C41.9895 35.3491 45.054 35.1742 48.027 34.3699C48.7588 34.1717 49.4678 33.9386 50.1424 33.6355C50.4511 32.4814 50.6913 31.3157 50.8399 30.15C50.6227 30.3715 50.394 30.5696 50.1195 30.7561C48.5416 31.8403 46.7235 32.2599 44.8482 32.528C40.8575 33.0992 36.8211 32.8894 32.7961 32.598C32.1786 32.5513 31.5612 32.4814 30.9437 32.2599C32.3158 32.0501 33.6994 31.8636 35.0716 31.6304C38.7192 31.0126 42.3326 30.2782 45.7629 28.8793C46.975 28.3897 48.1642 27.7836 49.2391 27.0608C49.8908 26.6178 50.4397 26.0233 51 25.4288C50.9314 24.1115 50.7599 22.8176 50.5083 21.5353C50.1424 22.6311 49.5021 23.6686 48.5987 24.5312Z" fill="#090A3C"/>
</svg>
