<svg width="148" height="26" viewBox="0 0 148 26" fill="none" xmlns="http://www.w3.org/2000/svg">
<g clip-path="url(#clip0_519_2119)">
<path d="M35.7311 8.0344C36.083 8.0344 36.4222 8.02502 36.7485 8.00939C37.078 7.99063 37.4011 7.98438 37.7274 7.98438V8.37519H37.5515C37.3723 8.37519 37.2091 8.4002 37.0652 8.4471C36.9212 8.49399 36.8508 8.57216 36.8508 8.67533C36.8508 8.74411 36.8796 8.81915 36.9372 8.89731C36.9948 8.97548 37.046 9.04426 37.0908 9.10679L39.1255 11.8769L40.7986 9.53825C40.9234 9.34753 41.0258 9.18808 41.1025 9.05989C41.1793 8.93483 41.2177 8.80977 41.2177 8.68784C41.2177 8.61906 41.1857 8.56278 41.1249 8.52526C41.061 8.48462 40.9874 8.45648 40.901 8.43459C40.8146 8.41271 40.7314 8.39707 40.6451 8.38769C40.5587 8.37831 40.4947 8.37519 40.4499 8.37519H40.2068V7.98438C40.4659 7.98438 40.725 7.99375 40.9746 8.00939C41.2273 8.02815 41.4832 8.0344 41.7424 8.0344C41.9567 8.0344 42.1743 8.02502 42.3886 8.00939C42.603 7.99063 42.8141 7.98438 43.022 7.98438V8.37519C42.7885 8.37519 42.5806 8.43772 42.4014 8.5659C42.2222 8.69096 42.0783 8.82853 41.9695 8.9786L39.4614 12.4146V15.538C39.4614 15.8163 39.487 16.0351 39.5349 16.1914C39.5829 16.3478 39.6565 16.4666 39.7493 16.5447C39.8421 16.6229 39.9604 16.6698 40.1012 16.6886C40.242 16.7073 40.3987 16.7136 40.5811 16.7136H40.837V17.1044C40.4339 17.1044 40.0404 17.095 39.6565 17.0794C39.2758 17.0637 38.9367 17.0544 38.6392 17.0544C38.2969 17.0544 37.9322 17.0637 37.5483 17.0794C37.1612 17.0981 36.7645 17.1044 36.3614 17.1044V16.7136H36.6173C37.0204 16.7136 37.3083 16.6448 37.4811 16.5041C37.6506 16.3634 37.737 16.0758 37.737 15.6412V12.843L35.0401 9.26311C34.9409 9.12242 34.8482 9.00049 34.765 8.89106C34.6786 8.78163 34.589 8.68784 34.4899 8.60968C34.3907 8.53151 34.2819 8.47211 34.1667 8.43459C34.0516 8.39707 33.9108 8.37519 33.7476 8.37519H33.6133V7.98438C33.9908 7.98438 34.3427 7.99375 34.6722 8.00939C34.9985 8.02502 35.3536 8.0344 35.7311 8.0344Z" fill="#999999"/>
<path d="M50.0639 7.78516C50.7837 7.78516 51.4587 7.88833 52.0857 8.09781C52.716 8.30728 53.2598 8.6043 53.7237 8.99199C54.1876 9.37967 54.5523 9.85177 54.8242 10.4114C55.0929 10.9679 55.2273 11.5964 55.2273 12.2936C55.2273 13.0439 55.0961 13.7255 54.837 14.3383C54.5747 14.9511 54.2164 15.4795 53.7589 15.9203C53.3014 16.3612 52.7607 16.6988 52.1401 16.9396C51.5195 17.1803 50.8508 17.2991 50.131 17.2991C49.4208 17.2991 48.7586 17.1866 48.1411 16.9583C47.5237 16.7301 46.9894 16.4143 46.5352 16.0047C46.0809 15.5952 45.7258 15.1043 45.4698 14.529C45.2139 13.9537 45.0859 13.3128 45.0859 12.6094C45.0859 11.9309 45.2139 11.2962 45.4698 10.7084C45.7258 10.1207 46.0777 9.61103 46.5224 9.17958C46.9671 8.74812 47.4949 8.40733 48.0996 8.16034C48.7042 7.91334 49.3632 7.78516 50.0639 7.78516ZM46.9766 12.1498C46.9766 12.7344 47.047 13.3003 47.1846 13.8474C47.3254 14.3977 47.5301 14.8854 47.8052 15.3106C48.0804 15.7359 48.4195 16.0798 48.829 16.3361C49.2385 16.5925 49.7151 16.7207 50.2654 16.7207C50.9212 16.7207 51.4491 16.5956 51.849 16.3424C52.2489 16.0891 52.5592 15.764 52.7799 15.3701C53.0007 14.973 53.1478 14.529 53.2246 14.0382C53.3014 13.5473 53.3398 13.0596 53.3398 12.5812C53.3398 12.1029 53.2726 11.6151 53.1383 11.118C53.0039 10.6209 52.7991 10.1676 52.524 9.75798C52.2489 9.34841 51.9066 9.01387 51.4939 8.75125C51.0812 8.48862 50.5949 8.36043 50.0383 8.36043C49.4464 8.36043 48.9537 8.47611 48.5602 8.70747C48.1699 8.93884 47.8564 9.23585 47.6229 9.60165C47.3893 9.96746 47.223 10.3739 47.1238 10.8241C47.0246 11.2712 46.9766 11.7152 46.9766 12.1498Z" fill="#999999"/>
<path d="M57.3711 7.98047C57.659 7.98047 57.9789 7.98985 58.334 8.00548C58.6892 8.02424 59.0826 8.03049 59.5145 8.03049C59.9176 8.03049 60.2887 8.02111 60.6278 8.00548C60.9638 7.98672 61.2677 7.98047 61.5364 7.98047V8.37128H61.3733C61.2389 8.37128 61.1045 8.37753 60.9766 8.39004C60.8454 8.40255 60.7302 8.43694 60.6342 8.49322C60.5351 8.54949 60.4551 8.64329 60.3911 8.7746C60.3271 8.90591 60.2983 9.08725 60.2983 9.32486V13.8333C60.2983 14.2522 60.3399 14.6337 60.4263 14.9776C60.5127 15.3215 60.6566 15.6185 60.8582 15.8655C61.0597 16.1125 61.3221 16.3063 61.6484 16.4408C61.9715 16.5752 62.3778 16.644 62.8609 16.644C63.7502 16.644 64.3997 16.3876 64.8092 15.8718C65.2187 15.3559 65.4234 14.6618 65.4234 13.7801V9.32486C65.4234 9.09038 65.3946 8.90591 65.337 8.7746C65.2794 8.64329 65.2027 8.54949 65.1067 8.49322C65.0139 8.43694 64.9083 8.40255 64.7964 8.39004C64.6844 8.37753 64.5692 8.37128 64.4541 8.37128H64.1853V7.98047C64.4541 7.98047 64.726 7.98985 65.0011 8.00548C65.2762 8.02424 65.5482 8.03049 65.8169 8.03049C66.076 8.03049 66.3384 8.02111 66.5975 8.00548C66.8566 7.98672 67.119 7.98047 67.3781 7.98047V8.37128H67.0966C67.007 8.37128 66.911 8.37753 66.8054 8.39004C66.7031 8.40255 66.6071 8.43694 66.5239 8.49322C66.4375 8.54949 66.3672 8.64329 66.316 8.7746C66.2616 8.90591 66.236 9.08725 66.236 9.32486V13.4925C66.236 14.2335 66.1432 14.8463 65.9513 15.334C65.7625 15.8217 65.5034 16.2126 65.1771 16.5033C64.8476 16.7941 64.4637 17.0004 64.0254 17.1161C63.5839 17.2349 63.1136 17.2912 62.6081 17.2912C61.9619 17.2912 61.3893 17.2318 60.8902 17.1161C60.3911 17.0004 59.9688 16.8097 59.6233 16.5471C59.2778 16.2845 59.0155 15.9468 58.8427 15.5341C58.6668 15.1214 58.5804 14.6212 58.5804 14.0365V9.32486C58.5804 9.09038 58.5516 8.90591 58.494 8.7746C58.4364 8.64329 58.3596 8.54949 58.2637 8.49322C58.1709 8.43694 58.0589 8.40255 57.9341 8.39004C57.8094 8.37753 57.6782 8.37128 57.5438 8.37128H57.3807V7.98047H57.3711Z" fill="#999999"/>
<path d="M69.2259 8.37128V7.98047C69.4338 7.98047 69.7345 7.98985 70.1344 8.00548C70.5343 8.02424 70.9502 8.03049 71.3821 8.03049C71.814 8.03049 72.2107 8.02111 72.5754 8.00548C72.9401 7.98672 73.2664 7.98047 73.5543 7.98047C74.3797 7.98047 75.1251 8.0899 75.7873 8.30562C76.4496 8.52448 77.0094 8.83088 77.4733 9.22794C77.9372 9.62501 78.2923 10.1002 78.5386 10.6599C78.785 11.2164 78.9097 11.8354 78.9097 12.517C78.9097 13.1455 78.7882 13.7364 78.545 14.2929C78.3019 14.8494 77.966 15.3371 77.5405 15.7561C77.115 16.175 76.6159 16.5064 76.0497 16.7503C75.4834 16.9942 74.8756 17.1161 74.2294 17.1161C74.175 17.1161 74.1206 17.1161 74.0662 17.1161C74.0118 17.1161 73.9574 17.113 73.903 17.1036C73.6055 17.0692 73.2376 17.0505 72.7961 17.0505C72.3546 17.0505 71.9068 17.0505 71.4493 17.0505C71.2157 17.0505 70.9854 17.0536 70.7615 17.0567C70.5375 17.0598 70.3264 17.0692 70.128 17.0755C69.9297 17.0848 69.7537 17.0911 69.5938 17.0942C69.437 17.0974 69.3122 17.1005 69.2227 17.1005V16.7097H69.4114C69.5362 16.7097 69.6577 16.7034 69.7761 16.6909C69.8913 16.6784 70.0001 16.644 70.0928 16.594C70.1856 16.5408 70.2624 16.4658 70.3232 16.3657C70.3808 16.2657 70.4095 16.1313 70.4095 15.9656V9.11852C70.4095 8.94343 70.3808 8.80899 70.3232 8.71207C70.2656 8.61515 70.1888 8.54324 70.0928 8.49009C70.0001 8.43694 69.8913 8.40567 69.7761 8.39317C69.6577 8.38066 69.5362 8.37441 69.4114 8.37441H69.2259V8.37128ZM72.1371 15.5998C72.1371 15.8249 72.1627 16.0062 72.2171 16.1406C72.2715 16.2751 72.3578 16.3814 72.473 16.4533C72.5882 16.5283 72.7353 16.5752 72.9113 16.5971C73.0873 16.619 73.2952 16.6284 73.5383 16.6284C74.1142 16.6284 74.6165 16.5221 75.0483 16.3095C75.4802 16.0969 75.8417 15.8124 76.1329 15.4528C76.424 15.0933 76.6447 14.6837 76.7951 14.2178C76.9423 13.752 77.019 13.2674 77.019 12.7609C77.019 11.898 76.9135 11.1883 76.7023 10.6317C76.4912 10.0752 76.2064 9.63439 75.8449 9.31236C75.4866 8.99033 75.0643 8.76522 74.5845 8.64016C74.1046 8.5151 73.5927 8.44944 73.0553 8.44944C72.9017 8.44944 72.7481 8.4557 72.5978 8.4682C72.4442 8.48071 72.2907 8.49634 72.1403 8.5151V15.5998H72.1371Z" fill="#999999"/>
<path d="M86.3236 7.78516C87.0434 7.78516 87.7184 7.88833 88.3455 8.09781C88.9757 8.30728 89.5196 8.6043 89.9835 8.99199C90.4473 9.37967 90.812 9.85177 91.084 10.4114C91.3527 10.9679 91.4871 11.5964 91.4871 12.2936C91.4871 13.0439 91.3559 13.7255 91.0968 14.3383C90.8344 14.9511 90.4761 15.4795 90.0187 15.9203C89.5612 16.3612 89.0205 16.6988 88.3999 16.9396C87.7792 17.1803 87.1106 17.2991 86.3908 17.2991C85.6806 17.2991 85.0184 17.1866 84.4009 16.9583C83.7835 16.7301 83.2492 16.4143 82.7949 16.0047C82.3406 15.5952 81.9855 15.1043 81.7296 14.529C81.4737 13.9537 81.3457 13.3128 81.3457 12.6094C81.3457 11.9309 81.4737 11.2962 81.7296 10.7084C81.9855 10.1207 82.3374 9.61103 82.7821 9.17958C83.2268 8.74812 83.7547 8.40733 84.3593 8.16034C84.964 7.91334 85.623 7.78516 86.3236 7.78516ZM83.2364 12.1498C83.2364 12.7344 83.3068 13.3003 83.4444 13.8474C83.5851 14.3977 83.7899 14.8854 84.065 15.3106C84.3401 15.7359 84.6792 16.0798 85.0887 16.3361C85.4982 16.5925 85.9749 16.7207 86.5252 16.7207C87.181 16.7207 87.7089 16.5956 88.1087 16.3424C88.5086 16.0891 88.819 15.764 89.0397 15.3701C89.2605 14.973 89.4076 14.529 89.4844 14.0382C89.5612 13.5473 89.5996 13.0596 89.5996 12.5812C89.5996 12.1029 89.5324 11.6151 89.398 11.118C89.2636 10.6209 89.0589 10.1676 88.7838 9.75798C88.5086 9.34841 88.1663 9.01387 87.7536 8.75125C87.3409 8.48862 86.8547 8.36043 86.298 8.36043C85.7062 8.36043 85.2135 8.47611 84.82 8.70747C84.4297 8.93884 84.1162 9.23585 83.8826 9.60165C83.6491 9.96746 83.4828 10.3739 83.3836 10.8241C83.2876 11.2712 83.2364 11.7152 83.2364 12.1498Z" fill="#999999"/>
<path d="M95.131 8.03362C95.3389 8.03362 95.5373 8.02424 95.7324 8.00861C95.9244 7.98985 96.1259 7.9836 96.3339 7.9836L102.335 14.5305L102.361 14.5055V9.6C102.361 9.33112 102.32 9.11539 102.233 8.95281C102.147 8.79336 102.044 8.6683 101.923 8.58076C101.801 8.49322 101.673 8.43694 101.539 8.41193C101.405 8.38691 101.286 8.37128 101.187 8.37128H100.889V7.98047C101.203 7.98047 101.52 7.98985 101.833 8.00548C102.147 8.02424 102.463 8.03049 102.777 8.03049C103.055 8.03049 103.33 8.02111 103.606 8.00548C103.881 7.98672 104.156 7.98047 104.434 7.98047V8.37128H104.233C104.089 8.37128 103.945 8.38379 103.801 8.41193C103.657 8.43694 103.529 8.50885 103.417 8.6214C103.305 8.73396 103.212 8.89966 103.142 9.11852C103.071 9.33737 103.033 9.64064 103.033 10.0346V15.9812C103.033 16.2063 103.036 16.4345 103.046 16.6596C103.055 16.8848 103.078 17.1005 103.113 17.3006H102.601L95.6556 9.79697V15.1808C95.6556 15.4684 95.6748 15.7092 95.71 15.8999C95.7452 16.0906 95.8124 16.2501 95.9052 16.3689C95.9979 16.4908 96.1291 16.5784 96.2955 16.6315C96.4618 16.6847 96.6698 16.7097 96.9225 16.7097H97.1528V17.1005C96.8649 17.1005 96.5738 17.0911 96.2827 17.0755C95.9915 17.0598 95.7004 17.0505 95.4125 17.0505C95.1054 17.0505 94.8015 17.0598 94.4943 17.0755C94.1872 17.0942 93.8833 17.1005 93.5762 17.1005V16.7097H93.7649C94.232 16.7097 94.5519 16.5627 94.7215 16.272C94.891 15.9812 94.9774 15.5716 94.9774 15.0495V9.54685C94.9774 9.36551 94.9422 9.1998 94.8686 9.05599C94.7951 8.91217 94.7055 8.78711 94.5935 8.68393C94.4815 8.58076 94.3504 8.50259 94.2032 8.44944C94.056 8.39629 93.9057 8.37128 93.7521 8.37128H93.5762V7.98047C93.8353 7.98047 94.0944 7.98985 94.3504 8.00548C94.6127 8.02424 94.8686 8.03362 95.131 8.03362Z" fill="#999999"/>
<path d="M106.51 12.3999C106.51 11.6433 106.663 10.9742 106.967 10.3989C107.274 9.82364 107.677 9.34215 108.18 8.95447C108.682 8.56678 109.258 8.27602 109.907 8.07905C110.554 7.88208 111.219 7.78516 111.904 7.78516C112.335 7.78516 112.7 7.81017 113.004 7.85707C113.308 7.90396 113.586 7.96024 113.845 8.01964C114.108 8.08217 114.357 8.13532 114.6 8.18222C114.844 8.22912 115.1 8.25726 115.368 8.26664C115.368 8.37919 115.368 8.52614 115.368 8.70435C115.368 8.88256 115.371 9.07328 115.381 9.27962C115.391 9.48597 115.407 9.69232 115.429 9.90805C115.451 10.1207 115.483 10.3207 115.531 10.5021L115.128 10.5271C114.92 9.72671 114.546 9.16394 114.002 8.84191C113.458 8.51988 112.79 8.35731 112 8.35731C111.398 8.35731 110.87 8.45735 110.422 8.65745C109.971 8.85755 109.597 9.13581 109.296 9.48597C108.996 9.83614 108.772 10.252 108.621 10.7272C108.474 11.2024 108.397 11.7152 108.397 12.2623C108.397 12.8376 108.468 13.3941 108.612 13.9287C108.756 14.4634 108.98 14.9386 109.28 15.3544C109.581 15.7702 109.971 16.0985 110.448 16.3486C110.925 16.5988 111.491 16.7207 112.147 16.7207C112.46 16.7207 112.751 16.6957 113.017 16.6488C113.282 16.6019 113.455 16.5425 113.535 16.4737V14.3446C113.535 14.2132 113.506 14.1038 113.449 14.0163C113.391 13.9287 113.311 13.86 113.212 13.8068C113.113 13.7536 113.004 13.7193 112.883 13.7036C112.761 13.6849 112.636 13.6786 112.511 13.6786H112.335V13.2878C112.678 13.3066 113.014 13.3191 113.346 13.3284C113.679 13.3378 114.015 13.341 114.357 13.341C114.661 13.341 114.965 13.3378 115.259 13.3284C115.557 13.3191 115.858 13.3066 116.162 13.2878V13.6786H115.986C115.499 13.6786 115.256 13.9006 115.256 14.3446V16.3299L115.567 16.4987V16.7332C114.965 16.8989 114.361 17.0334 113.759 17.1365C113.158 17.2397 112.505 17.2929 111.804 17.2929C111.049 17.2929 110.349 17.1866 109.699 16.9739C109.053 16.7613 108.493 16.4456 108.02 16.0266C107.546 15.6077 107.178 15.0949 106.906 14.4853C106.647 13.8787 106.51 13.1815 106.51 12.3999Z" fill="#999999"/>
<path d="M118.344 14.7252L118.721 14.647C118.756 14.9253 118.827 15.1911 118.929 15.4443C119.032 15.6976 119.169 15.9164 119.342 16.104C119.515 16.2916 119.719 16.4417 119.963 16.5542C120.206 16.6668 120.487 16.723 120.814 16.723C121.047 16.723 121.261 16.6887 121.46 16.6199C121.658 16.5511 121.834 16.451 121.984 16.326C122.138 16.2009 122.256 16.0446 122.343 15.8633C122.429 15.6788 122.471 15.4724 122.471 15.2348C122.471 14.8503 122.372 14.5407 122.173 14.3C121.975 14.0593 121.732 13.8529 121.437 13.6778C121.146 13.5027 120.829 13.337 120.487 13.1745C120.145 13.0119 119.828 12.8212 119.537 12.5992C119.246 12.3772 119 12.1021 118.801 11.7707C118.603 11.4393 118.504 11.0141 118.504 10.4888C118.504 10.0605 118.577 9.68216 118.728 9.3445C118.875 9.00997 119.08 8.72545 119.342 8.49409C119.604 8.26273 119.918 8.08765 120.286 7.96571C120.654 7.84378 121.053 7.78125 121.485 7.78125C121.575 7.78125 121.709 7.79063 121.882 7.80626C122.055 7.82189 122.24 7.84378 122.435 7.86567C122.627 7.88755 122.816 7.90944 122.995 7.93132C123.174 7.95321 123.318 7.96884 123.427 7.97822C123.427 8.28462 123.44 8.59101 123.462 8.90679C123.485 9.21944 123.517 9.53522 123.565 9.84787L123.187 9.91352C123.162 9.70405 123.107 9.50083 123.024 9.30073C122.944 9.10063 122.835 8.92242 122.701 8.7661C122.567 8.60977 122.407 8.48471 122.221 8.39404C122.036 8.30338 121.828 8.25648 121.594 8.25648C121.053 8.25648 120.644 8.4003 120.359 8.68794C120.078 8.97557 119.934 9.37889 119.934 9.90415C119.934 10.2606 120.033 10.5545 120.231 10.7796C120.43 11.0078 120.679 11.2048 120.98 11.3736C121.281 11.5424 121.607 11.7081 121.959 11.8645C122.311 12.0208 122.634 12.2146 122.938 12.4397C123.238 12.668 123.488 12.9462 123.686 13.2776C123.885 13.6091 123.984 14.0343 123.984 14.5595C123.984 15.0129 123.894 15.4099 123.715 15.7476C123.536 16.0884 123.296 16.3729 123.002 16.6042C122.704 16.8356 122.359 17.0107 121.962 17.1264C121.565 17.242 121.153 17.3015 120.721 17.3015C120.343 17.3015 119.975 17.2452 119.614 17.1326C119.256 17.0201 118.907 16.8794 118.574 16.7137C118.539 16.3823 118.501 16.0508 118.459 15.7194C118.417 15.3849 118.379 15.0566 118.344 14.7252Z" fill="#999999"/>
<path d="M126.039 17.1006V16.7098H126.119C126.378 16.7098 126.615 16.6379 126.826 16.4941C127.037 16.3503 127.191 16.1377 127.29 15.8594L129.446 9.85966C129.536 9.61579 129.632 9.34691 129.731 9.04989C129.83 8.75287 129.9 8.48399 129.945 8.24013C130.16 8.17134 130.387 8.08067 130.627 7.96499C130.863 7.85244 131.046 7.75552 131.174 7.67736L131.282 7.65234C131.337 7.65234 131.369 7.66485 131.375 7.69299C131.401 7.74614 131.423 7.79929 131.442 7.85557C131.462 7.91184 131.478 7.96812 131.497 8.01814L133.976 14.8527C134.056 15.0778 134.139 15.3092 134.219 15.5374C134.299 15.7656 134.386 15.9845 134.475 16.1846C134.619 16.5316 134.917 16.7067 135.365 16.7067H135.445V17.0975C135.137 17.0788 134.834 17.0662 134.526 17.06C134.219 17.0506 133.906 17.0475 133.583 17.0475C133.25 17.0475 132.914 17.0506 132.578 17.06C132.242 17.0694 131.903 17.0819 131.561 17.0975V16.7067H131.708C131.788 16.7067 131.878 16.7036 131.97 16.6942C132.063 16.6848 132.156 16.6692 132.239 16.641C132.325 16.616 132.396 16.5754 132.453 16.5222C132.511 16.4691 132.54 16.4034 132.54 16.3253C132.54 16.2377 132.514 16.1127 132.46 15.947C132.405 15.7813 132.341 15.5937 132.271 15.3842L131.746 13.8678H128.685L128.253 15.2279C128.183 15.4561 128.112 15.6499 128.051 15.8156C127.987 15.9813 127.959 16.1252 127.959 16.2471C127.959 16.344 127.991 16.4222 128.051 16.4816C128.115 16.5441 128.195 16.5879 128.294 16.6192C128.394 16.6504 128.502 16.6723 128.624 16.6848C128.746 16.6973 128.861 16.7036 128.97 16.7036H129.117V17.0944C128.848 17.0756 128.576 17.0631 128.301 17.0569C128.026 17.0506 127.754 17.0444 127.485 17.0444C127.242 17.0444 126.999 17.0475 126.756 17.0569C126.525 17.0725 126.282 17.085 126.039 17.1006ZM131.471 13.1425L130.23 9.44383H130.204L128.95 13.1425H131.471Z" fill="#999999"/>
<path d="M138.695 8.03362C138.903 8.03362 139.102 8.02424 139.297 8.00861C139.489 7.98985 139.69 7.9836 139.898 7.9836L145.9 14.5305L145.926 14.5055V9.6C145.926 9.33112 145.884 9.11539 145.798 8.95281C145.711 8.79336 145.609 8.6683 145.487 8.58076C145.366 8.49322 145.238 8.43694 145.103 8.41193C144.969 8.38691 144.851 8.37128 144.751 8.37128H144.454V7.98047C144.767 7.98047 145.084 7.98985 145.398 8.00548C145.711 8.02424 146.028 8.03049 146.341 8.03049C146.62 8.03049 146.895 8.02111 147.17 8.00548C147.445 7.98672 147.72 7.98047 147.999 7.98047V8.37128H147.797C147.653 8.37128 147.509 8.38379 147.365 8.41193C147.221 8.43694 147.093 8.50885 146.981 8.6214C146.869 8.73396 146.777 8.89966 146.706 9.11852C146.636 9.33737 146.597 9.64064 146.597 10.0346V15.9812C146.597 16.2063 146.601 16.4345 146.61 16.6596C146.62 16.8848 146.642 17.1005 146.677 17.3006H146.165L139.22 9.80009V15.1839C139.22 15.4716 139.239 15.7123 139.274 15.903C139.31 16.0937 139.377 16.2532 139.47 16.372C139.562 16.4939 139.694 16.5815 139.86 16.6346C140.026 16.6878 140.234 16.7128 140.487 16.7128H140.717V17.1036C140.429 17.1036 140.138 17.0942 139.847 17.0786C139.556 17.063 139.265 17.0536 138.977 17.0536C138.67 17.0536 138.366 17.063 138.059 17.0786C137.752 17.0974 137.448 17.1036 137.141 17.1036V16.7128H137.329C137.796 16.7128 138.116 16.5658 138.286 16.2751C138.455 15.9843 138.542 15.5747 138.542 15.0526V9.54997C138.542 9.36864 138.507 9.20293 138.433 9.05911C138.36 8.91529 138.27 8.79023 138.158 8.68706C138.046 8.58388 137.915 8.50572 137.768 8.45257C137.621 8.39942 137.47 8.37441 137.317 8.37441H137.141V7.9836C137.4 7.9836 137.659 7.99297 137.915 8.00861C138.174 8.02424 138.433 8.03362 138.695 8.03362Z" fill="#999999"/>
<path d="M25.3567 12.0856C24.4002 12.9704 23.2197 13.4676 21.9848 13.8396C19.3839 14.6181 16.7029 14.8307 13.9805 14.8338C14.1116 14.7963 14.2428 14.7557 14.3771 14.7213C17.0517 13.9709 19.6814 13.1049 22.1287 11.7886C23.5012 11.0476 24.8096 10.216 25.7246 8.92475C25.7758 8.85284 25.8206 8.7778 25.8654 8.70277C25.7278 8.32133 25.5742 7.94928 25.4015 7.58348C25.3407 7.69291 25.2767 7.80234 25.2063 7.90551C24.4609 8.96539 23.4564 9.73139 22.3527 10.3911C20.2252 11.6604 17.9282 12.5671 15.548 13.2393C13.0271 13.9522 10.4678 14.5274 7.92442 15.1621C7.79966 15.1934 7.66849 15.2028 7.54052 15.2215C7.53413 15.1965 7.52453 15.1715 7.51813 15.1465C8.20595 14.8526 8.90017 14.5681 9.58479 14.2648C13.8781 12.3764 18.0786 10.3317 21.8696 7.56472C22.7046 6.95505 23.514 6.31412 24.2402 5.5919C22.9669 3.79728 21.2138 2.29031 19.0511 1.28045C12.4097 -1.82104 4.46932 0.924029 1.30214 7.40214C-1.86504 13.8803 0.943835 21.6371 7.57572 24.7292C14.2076 27.8213 22.1479 25.0794 25.3151 18.6013C25.3183 18.595 25.3215 18.5888 25.3247 18.5794C24.7233 18.6763 24.1122 18.6857 23.5012 18.6638C21.2682 18.5825 19.1023 18.1229 16.8789 17.5164C18.0466 17.532 19.1343 17.5695 20.2188 17.5602C21.8248 17.5445 23.4212 17.4351 24.9792 17.0099C25.3599 16.9067 25.7342 16.7848 26.0861 16.6253C26.2589 16.0469 26.39 15.4623 26.4796 14.8776C26.3676 14.987 26.2397 15.0902 26.1021 15.184C25.2735 15.7405 24.317 15.9625 23.3412 16.1126C21.2522 16.4315 19.1535 16.3596 17.0549 16.2408C16.7317 16.222 16.4118 16.1939 16.0887 16.0876C16.8085 15.9719 17.5283 15.8656 18.2449 15.7374C20.1517 15.3997 22.0456 15.0027 23.8435 14.2773C24.4769 14.0209 25.104 13.7114 25.6734 13.3394C26.0189 13.1143 26.3101 12.811 26.6076 12.5108C26.582 11.8543 26.5052 11.204 26.3804 10.563C26.1725 11.1227 25.8302 11.6448 25.3567 12.0856Z" fill="#999999"/>
</g>
<defs>
<clipPath id="clip0_519_2119">
<rect width="148" height="26" fill="white"/>
</clipPath>
</defs>
</svg>
